<svg id="eOIEPMf1KxL1" xmlns="http://www.w3.org/2000/svg" xmlns:xlink="http://www.w3.org/1999/xlink" viewBox="0 0 633 190" shape-rendering="geometricPrecision" text-rendering="geometricPrecision"><g id="eOIEPMf1KxL2" transform="translate(-20.415983-486.540093)" opacity="0"><path d="M39.199,610.207c1.939,17.738,3.109,10.823,4.217,19.542.29,2.098,3.76,14.473,6.374.3l1.939-10.222c6.096-35.773,8.313-51.401,9.978-66.132.274-3.007,1.109-6.613,3.6-8.118c2.217-.901,5.821.601,6.374,1.203.831.903.831,1.804,1.109,3.007.278.901.552,2.406.831,4.208.278,2.106,1.387,7.217,1.665,9.62c4.156,23.151,10.252,56.599,17.734,78.544c3.6,10.523,6.096,14.431,6.096,10.222c0-7.516,0-22.031-.278-29.547-1.939-47.2,5.217-90.49,15.469-129.872.831-2.406,2.77-3.608,4.987-3.007s3.048,3.007,2.773,5.41c-10.256,38.481-17.412,80.87-15.469,126.867.274,9.32.552,24.137.552,30.45-.278,5.712-.278,10.222-.552,13.528-.278,2.104-.556,3.606-.834,5.111-.831,1.502-1.383,3.908-3.878,4.809-1.387.302-2.77,0-3.878-.901-.831-.903-1.109-1.502-1.939-3.007-1.109-2.104-3.326-7.215-4.435-10.521-8.313-21.946-15.517-53.592-19.951-76.44-2.495-12.627-4.709-9.62-6.652,0-1.661,8.417-3.322,22.24-5.539,36.07L53.947,650.1c-.831,4.809-1.661,8.417-2.217,10.823-.278,1.503-.552,2.404-.83,3.307c0,.601,0,.901-.278,1.203-.274.3-.274.601-.274.901-.556.903-1.109,1.502-1.665,1.804-1.387.901-2.77.601-4.156-.302l-1.109-1.201-.552-1.203c-.278-.302-.278-.601-.556-1.504-.278-.901-.552-2.404-1.109-4.509-.831-3.606-1.661-9.019-3.048-15.932-2.492-12.929-7.539-26.391-11.696-65.171l-1.326-44.174c-.278-2.705-.834-6.613-1.665-12.026-1.661-10.823-3.048-22.54-2.217-30.958c0-2.406,1.943-4.21,4.156-4.21c2.217.302,3.882,2.406,3.604,4.811-.278,7.514.552,18.031,2.217,28.554.83,5.109,1.387,9.319,1.661,12.625.278,3.908-.335,24.634,1.604,44.174l4.708,33.095ZM153.828,500.752c.797,19.242,4.53,48.367,2.936,87.113-.267,8.581-1.267,20.023-.466,34.326.797,17.942,1.327,29.644,1.327,34.844c0,2.081-.594,3.641-2.722,3.641s-4.722-1.56-4.722-3.641c0-5.98-.534-17.422-1.331-34.585-.797-15.861-.064-27.565.47-35.105c1.594-35.366-2.139-63.969-2.94-86.073-.263-2.081,1.331-3.901,3.459-4.161c2.128,0,3.989,1.56,3.989,3.641Zm47.666,75.084c-.797.265,0,1.861,0,1.861c8.513,14.096,21.299,28.331,31.673,54.129c3.456,9.31,6.915,16.756,9.84,22.075c2.391,4.521-4.523,8.246-6.915,3.724-2.925-5.585-6.385-13.299-10.107-22.874-12.235-31.65-27.947-50.404-31.936-54.394-.267-.267-.534-.267-.797-.799-.267,1.863-1.064,5.32-1.064,8.246-.267,4.786-.267,9.308-.534,13.829c0,2.128,3.733,10.384,3.47,16.767-.801,13.032-.801,16.755-.801,26.861c0,5.053.267,9.842.534,13.831.267,2.126-1.331,3.989-3.459,3.989-2.124.265-3.989-1.331-3.989-3.457-.53-3.989-.797-8.778-.797-14.096c0-10.374,0-14.628.797-27.66.267-6.383-3.466-14.639-3.199-16.767c1.594-36.436,2.064-70.086-.064-96.681-.267-2.395-1.598-4.256-1.064-6.65l.53-1.329c.267-.799,1.064-1.596,2.128-1.863c21.011-5.053,32.235,6.532,41.545,19.299c9.306,11.968,10.509,30.586-1.459,45.479-7.182,9.308-13.957,11.957-23.797,16.212l-.535.268Zm-2.926-7.182c1.861-.797,2.128-.797,3.459-1.596c15.957-7.979,22.861-19.137,23.659-31.904.267-6.649-1.331-12.233-4.786-16.755-5.584-8.511-11.224-19.299-24.257-18.235-3.192.267-4.787,2.66-4.787,5.85c1.331,15.692.861,36.31.594,57.853c0,3.989.801,5.585,2.128,5.585c2.129.001,3.99-.798,3.99-.798Zm84.873-69.006c6.123.039,19.972-1.68,22.099-1.759c2.127-.078,3.778,1.441,3.855,3.544.039,1.05-.196,1.849-.963,2.666-.771.819-1.558,1.11-2.622,1.149-2.127.078-15.966,2.06-22.352,2.032-5.326-.069-12.58.088-15.493.459l-2.923.107c-1.812,1.382-2.788,3.786-2.788,3.786-.427,2.911-.803,5.137-.876,10.403-.192,9.22-.005,21.584.308,37.365l.116,7.153c.126,3.419,2.053,5.19,5.5,4.799c4.244-.418,12.027-.594,13.357-.643c2.113-.342,4.035,1.167,4.375,3.261.077,2.103-1.448,4.001-3.575,4.079-.787.293-3.18.381-7.167.527-1.593.059-6.18.379-7.507.428-2.923.107-4.443,2.269-4.327,5.422.27,7.362.56,11.247,1.165,20.436.682,11.293.904,17.339.952,18.652l.251,6.834c-.112,4.216.023,7.897.129,10.788.154,4.205.28,4.622.634,6.977.292.78.321,1.568.35,2.357l1.597-.059c1.33-.049,5.666.164,8.06.077l9.503,1.688c3.457-.127,7.443-.273,12.484-.721l7.973-.293c2.127-.078,3.778,1.441,3.855,3.542.077,2.103-1.458,3.739-3.585,3.817-.534.02-3.19.117-7.964.555-4.774.44-8.76.586-12.217.713-5.317.195-13.303-1.658-16.236-1.815l-2.39.088c-1.597.059-3.18.381-5.355-.856-.267.01-.543-.242-.816-.497-1.369-1.001-1.956-2.559-2.272-3.865-.305-1.04-.354-2.355-.412-3.933-.363-2.617-.489-3.034-.653-7.503-.106-2.891-.241-6.572-.129-10.788l-.251-6.834c-.01-.262-.299-5.148-1.145-20.909-1.64-30.625-2.735-61.235-2.334-81.089.064-5.528.439-7.754.847-11.191.671-3.446,1.342-6.892,3.421-8.286c2.078-1.392,5.259-1.771,9.236-2.181l16.285-.482Zm48.145-2.922c-.269-.313-.252-.924-.509-1.543-1.72-7.696,5.038-11.479,10.153-6.134.269.313.804.94,1.065,1.559.804.942,2.599,1.188,4.202,3.374c2.12,3.425,4.223,7.461,6.574,12.423c5.183,12.688,9.555,25.037,14.348,31.904c3.728,5.306,3.115,7.429,7.192.51c9.611-16.242,20.717-35.246,27.598-43.308.278.008.278.008.287-.297c0,0,.009-.305.295-.603.283-.297.578-.9.874-1.504c1.178-2.414,3.756-5.4,7.297-3.156.821.328,1.36.956,1.886,1.887l.521,1.239c-.009.307-.026.918.222,1.842.252.924.208,2.453.434,4.295.665,5.829.568,9.192,1.014,32.449.385,15.61,1.522,30.297,1.413,43.75.304,37.936-.147,57.314,2.123,84.602.208,2.453-1.248,4.859-3.464,4.796-2.225.241-4.398-1.349-4.328-3.795-2.548-27.295-2.076-47.285-2.093-85.518-.289-18.972-1.435-33.352-1.425-43.446-.499-11.637-.585-18.368-.532-20.202l-.152-4.285c.052-1.834-5.898,5.501-9.075,9.998-4.338,6.3-10.558,16.408-16.092,25.732l-2.33,3.91c-3.204,5.413-9.998,8.604-14.981.489-7.73-10.925-12.841-21.657-19.355-36.218-.778-1.858-1.556-3.714-2.085-4.647-2.077-4.952-2.078,4.836-2.252,10.947.156,4.287.016,9.176-.132,14.372-.314,11.002-.063,26.497-1.243,48.486-1.462,21.981-3.207,27.476-3.521,38.478l-.288,10.084c-.4,4.272-.496,7.633-.566,10.078-.148,5.195.177,13.157,1.12,18.995.217,2.147-.97,4.865-2.917,5.117-2.225.241-4.681-1.052-4.889-3.504-1.703-8.308-1.493-15.642-.827-29.387.47-6.717.583-10.69.609-11.606.314-11.002,2.063-16.497,3.521-38.478c1.184-21.989.929-37.484,1.243-48.486.393-13.753.154-24.771-.423-33.658.009-.305.009-.305-.261-.617l-.251-.924Zm164.173,52.732c-.25,43.674-.96,65.087-12.734,82-6.726,9.663-7.377,13.432-13.394,16.843-7.938,4.642-15.249,2.144-20.487-4.496-3.717-5.236-7.02-2.372-9.646-13.395-5.434-23.649-17.032-83.313,1.915-116.345c4.338-6.949,12.902-13.42,20.678-14.882c13.129-2.252,24.938,1.113,28.543,13.78c1.359,4.584,5.808,12.626,5.125,36.495Zm-6.785-12.829c-.11-8.238-3.805-15.446-5.628-21.381-2.68-9.965-11.737-10.003-20.041-8.567-5.353.79-11.996,6.029-15.193,11.444-17.74,30.172-6.524,86.893-1.09,110.542c2.418,9.95,4.967,6.252,8.207,10.401c3.243,4.149,6.13,4.828,10.491,2.66c8.745-4.868,17.498-12.963,20.133-38.591c1.468-13.207,2.228-33.353,3.121-66.508Zm44.152,36.08c-3.025,1.179-4.362,3.43-4.286,6.759-.049,46.34-4.011,80.144-3.897,85.137.051,2.219-1.577,3.92-3.793,3.971-2.219.051-3.924-1.574-3.974-3.793-.292-12.758,3.58-38.514,3.618-60.991-.149-43.005.873-58.846-1.989-99.015-.412-5.818-5.912-3.037-9.487-1.569l-.825.297c-4.662,2.325-8.156-4.809-3.494-7.136c14.275-6.708,35.782-10.722,49.549-3.268c15.43,7.416,30.359,25.642,27.436,43.468-1.693,10.86-14.869,17.881-25.534,24.784-1.637,1.148-3.281,2.017-4.928,2.888-3.012,1.734-3.24,3.958-.951,6.958c5.726,7.64,11.315,17.934,13.042,32.878.329,2.213.696,6.088,1.102,11.63.807,11.081,1.155,14.125,2.714,21.581.914,3.586-.179,7.896,1.266,10.36.572.82,1.148,1.639,1.713,2.181l.572.819c1.382-.308,4.478,3.112,5.563,1.977l.812-.85c3.233-4.236,9.449.615,6.215,4.852-6.201,7.911-16.496,5.211-22.013-5.484-3.184-5.755-3.069-16.423-3.755-22.234-.348-3.044-.722-7.198-1.134-13.016-.402-5.542-.762-9.14-1.085-11.075-1.465-15.505-6.757-24.974-14.12-31.465-2.27-2.168-4.489-2.117-7.514-.938l-.823.294Zm41.057-37.626c2.183-13.647-11.725-26.588-24.083-32.964-5.899-3.195-11.763-4.726-17.877-5.142-3.888-.188-5.778,2.076-5.417,5.675.921,16.073,1.631,34.925,1.564,56.293.095,4.16,2.916,6.037,6.759,4.284c16.656-6.749,37.844-21.149,39.054-28.146Zm32.586-32.347c-.266.264-.266.264-.266.531c0,.264-.529-.674-.795,1.713c0,.531-.266,1.061-.266,1.858-1.061,8.222-.263,19.097.795,33.156.799,12.203,1.328,9.406.799,20.281-.266,5.306,5.59,5.837,9.303,5.837c3.184,0,9.101,0,11.224-.266c2.122-.264,3.979,1.327,4.245,3.448c0,2.122-1.594,3.979-3.713,3.979-2.655.266-12.573.266-16.285.266-3.45,0-5.306,0-5.572,5.305-1.324,25.995-3.59,36.686-2.529,51.276.266,4.509.795,7.958,1.327,10.345c0,.531.263,1.061.263,1.326.266.266.532-1.592.532-2.387c0,2.653,1.061,4.509,3.979,5.04c5.835,1.061,19.527,0,27.222-.531c3.979-.264,6.896-.264,8.753-.264c2.122,0,3.713,1.59,3.713,3.713c0,2.122-1.59,3.714-3.713,3.714-3.45,0-14.591,2.059-18.038,2.326-8.753.264-21.12-1.531-25.365-3.387-2.918-1.061-3.979-4.245-4.774-7.693-.795-2.918-1.327-6.632-1.59-11.67-1.061-16.181,1.468-27.259,2.263-44.766.266-8.753.799-17.915,1.061-24.017.532-11.67.266-8.345-.795-21.342-1.061-14.059-1.856-25.729-.795-34.484.795-5.305,1.856-7.814,5.04-9.936c1.856-1.061,5.04-1.326,8.486-1.326c1.86,0,10.101,0,16.735.264c12.998.266,19.894,2.531,20.955,2.531c2.122-.264,3.979,1.326,4.241,3.448c0,1.061-.263,2.122-1.061,2.653-1.59,1.856-3.446,1.326-5.835,1.326-3.446,0-9.814-2-18.567-2.264-6.63-.266-14.609-.266-16.203-.266-1.856,0-3.184,0-3.979.266h-.795v-.003Z"/></g><g id="eOIEPMf1KxL4" transform="translate(-19.417252-13.999897)" opacity="0"><path d="M40.199,138.657c1.939,17.738,1.109,10.823,2.217,19.542.831,6.012,3.048,18.337,6.374.3l1.939-10.222c6.096-35.773,8.313-48.401,9.978-63.132.274-3.007,1.109-6.613,3.6-8.118c2.217-.901,5.821.601,6.374,1.203.831.903.831,1.804,1.109,3.007.278.901.552,2.406.831,4.208.278,2.106,1.387,7.217,1.665,9.62c4.156,23.151,10.252,46.599,17.734,68.544c3.6,10.523,6.096,14.431,6.096,10.222c0-7.516,0-15.031-.278-22.547-1.939-47.2,2.217-90.49,12.469-129.872.831-2.406,2.77-3.608,4.987-3.007s3.048,3.007,2.773,5.41c-10.256,38.481-14.412,80.87-12.469,126.867.274,9.32.552,17.137.552,23.45-.278,5.712-.278,10.222-.552,13.528-.278,2.104-.556,3.606-.834,5.111-.831,1.502-1.383,3.908-3.878,4.809-1.387.302-2.77,0-3.878-.901-.831-.903-1.109-1.502-1.939-3.007-1.109-2.104-3.326-7.215-4.435-10.521-8.313-21.946-15.517-43.592-19.951-66.44-2.495-12.627-4.709-9.62-6.652,0-1.661,8.417-3.322,19.24-5.539,33.07L52.949,182.55c-.831,4.809-1.661,8.417-2.217,10.823-.278,1.502-.552,2.404-.83,3.307c0,.601,0,.901-.278,1.203-.274.3-.274.601-.274.901-.556.903-1.109,1.502-1.665,1.804-1.387.901-2.77.601-4.156-.302l-1.109-1.201-.552-1.203c-.278-.302-.278-.601-.556-1.504-.278-.901-.552-2.404-1.109-4.509-.831-3.606-1.661-9.019-3.048-15.932-2.492-12.929-5.539-42.391-9.696-81.171L24.13,59.591c-.278-2.705-.834-6.613-1.665-12.026-1.661-10.823-3.048-19.54-2.217-27.958c0-2.406,1.943-4.21,4.156-4.21c2.217.302,3.882,2.406,3.604,4.811-.278,7.514.552,15.031,2.217,25.554.83,5.109,1.387,9.318,1.661,12.625.278,3.908,1.665,15.634,3.604,35.174l4.709,45.096ZM151.828,29.202c.797,19.242.53,48.367-1.064,87.113-.267,8.58-.267,20.023.534,34.326.797,17.942,1.327,29.644,1.327,34.844c0,2.081-1.594,3.641-3.722,3.641s-3.722-1.561-3.722-3.641c0-5.98-.534-17.422-1.331-34.585-.797-15.861-1.064-27.565-.53-35.105c1.594-35.366,1.861-63.969,1.06-86.073-.263-2.081,1.331-3.901,3.459-4.162c2.128,0,3.989,1.561,3.989,3.642Zm48.666,75.083c-.797.265,0,1.861,0,1.861c8.513,14.096,13.299,26.331,23.673,52.129c3.456,9.31,6.915,16.756,9.84,22.075c2.391,4.521-4.523,8.246-6.915,3.724-2.925-5.585-6.385-13.299-10.107-22.874-12.235-31.65-19.947-48.404-23.936-52.394-.267-.267-.534-.267-.797-.799-.267,1.863-1.064,5.32-1.064,8.246-.267,4.786-.267,9.308-.534,13.829c0,2.128-.267,6.384-.53,12.767-.801,13.032-.801,16.755-.801,26.861c0,5.053.267,9.842.534,13.831.267,2.126-1.331,3.989-3.459,3.989-2.124.265-3.989-1.331-3.989-3.457-.53-3.989-.797-8.778-.797-14.096c0-10.374,0-14.628.797-27.66.267-6.383.534-10.639.801-12.767c1.594-36.436,1.064-68.086-1.064-94.681-.267-2.395-1.598-4.256-1.064-6.65l.53-1.329c.267-.799,1.064-1.596,2.128-1.863c21.011-5.053,37.235.532,46.545,13.299c9.306,11.968,8.509,30.586-3.459,45.479-7.182,9.308-15.957,15.957-25.797,20.212l-.535.268Zm-2.926-7.181c1.861-.797,2.128-.797,3.459-1.596c15.957-7.979,26.861-23.137,27.659-35.904.267-6.649-1.331-12.233-4.786-16.755-5.584-8.511-16.224-13.299-29.257-12.235-3.192.267-4.787,2.66-4.787,5.851c1.331,15.692,1.861,34.31,1.594,55.853c0,3.989.801,5.585,2.128,5.585c2.129,0,3.99-.799,3.99-.799Zm84.873-71.006c6.123.039,19.972.32,22.099.241c2.127-.078,3.778,1.441,3.855,3.544.039,1.05-.196,1.849-.963,2.666-.771.819-1.558,1.11-2.622,1.149-2.127.078-15.966.06-22.352.032-5.326-.069-9.58.088-12.493.459l-2.923.107c-1.812,1.382-2.788,3.786-2.788,3.786-.427,2.911-.803,7.137-.876,12.403-.192,9.22-.005,21.584.308,37.365l.116,3.153c.126,3.419,2.053,5.19,5.5,4.799c4.244-.418,9.027-.594,10.357-.643c2.113-.342,4.035,1.167,4.375,3.261.077,2.103-1.448,4.001-3.575,4.079-.787.293-3.18.381-7.167.527-1.593.059-3.18.379-4.507.428-2.923.107-4.443,2.269-4.327,5.422.27,7.361.56,15.247,1.165,24.436.682,11.293.904,17.339.952,18.652l.251,6.834c-.112,4.216.023,7.897.129,10.788.154,4.205.28,7.622.634,9.977.292.78.321,1.568.35,2.357l1.597-.059c1.33-.049,2.666.164,5.06.077l8.503-.312c3.457-.127,7.443-.273,12.484-.721l7.973-.293c2.127-.078,3.778,1.441,3.855,3.542.077,2.103-1.458,3.739-3.585,3.817-.534.02-3.19.117-7.964.555-4.774.44-8.76.586-12.217.713-5.317.195-9.303.342-12.236.185l-2.39.088c-1.597.059-3.18.381-5.355-.856-.267.01-.543-.242-.816-.497-1.369-1.001-1.956-2.559-2.272-3.865-.305-1.04-.354-2.355-.412-3.933-.363-2.618-.489-6.034-.653-10.503-.106-2.891-.241-6.572-.129-10.788l-.251-6.834c-.01-.262-.299-8.148-1.145-23.909-1.689-31.524-2.712-59.386-2.334-78.089.064-5.528.439-9.754.847-13.191.671-3.446,1.342-6.892,3.421-8.286c2.078-1.392,5.259-1.771,9.236-2.181l13.285-.482Zm49.145-1.923c-.269-.313-.252-.924-.509-1.543-1.72-7.696,5.038-11.479,10.153-6.134.269.313.804.94,1.065,1.559.804.942,1.599,2.188,3.202,4.374c2.12,3.425,4.223,7.461,6.574,12.423c5.183,12.688,7.555,17.037,12.348,23.904c3.728,5.306,3.115,7.429,7.192.51c9.611-16.242,17.717-28.246,24.598-36.308.278.008.278.008.287-.297c0,0,.009-.305.295-.603.283-.297.578-.9.874-1.504c1.178-2.414,3.756-5.399,7.297-3.156.821.328,1.36.956,1.886,1.887l.521,1.239c-.009.307-.026.918.222,1.842.252.924.208,2.453.434,4.295.665,5.829.568,9.192,1.014,32.449.385,15.61.522,30.297.413,43.75.304,37.936.853,67.314,3.123,94.602.208,2.453-1.248,4.859-3.464,4.796-2.225.241-4.398-1.349-4.328-3.795-2.548-27.295-3.076-57.285-3.093-95.518-.289-18.972-.435-33.352-.425-43.446-.499-11.637-.585-18.368-.532-20.202l-.152-4.285c.052-1.834-3.898.501-7.075,4.998-4.338,6.3-9.558,14.408-15.092,23.732l-2.33,3.91c-3.204,5.413-9.998,8.603-14.981.489-7.73-10.925-9.841-14.657-16.355-29.218-.778-1.858-1.556-3.713-2.085-4.647-2.077-4.952-2.078,4.836-2.252,10.947.156,4.287.016,9.176-.132,14.372-.314,11.002-1.063,27.497-2.243,49.486-1.462,21.981-2.207,38.476-2.521,49.478l-.288,10.084c-.4,4.272-.496,7.633-.566,10.079-.148,5.195.177,13.157,1.12,18.995.217,2.147-.97,4.865-2.917,5.117-2.225.241-4.681-1.053-4.889-3.504-1.703-8.308-1.493-15.642-.827-29.387.47-6.717.583-10.69.609-11.606.314-11.002,1.063-27.497,2.521-49.478c1.184-21.989,1.929-38.484,2.243-49.486.393-13.753.154-24.771-.423-33.658.009-.305.009-.305-.261-.617l-.251-.925ZM491.759,77.907c-.269,46.998-3.355,71.011-8.734,88-3.494,11.243-8.377,18.432-14.394,21.843-7.938,4.642-15.249,2.144-20.487-4.496-3.717-5.236-7.02-13.372-9.646-24.395-5.434-23.649-13.032-88.313,5.915-121.345c4.338-6.949,12.902-13.42,20.678-14.882c13.129-2.252,20.938,6.113,24.543,18.78c1.359,4.584,2.808,12.626,2.125,36.495Zm-6.785-12.829c-.11-8.238-.805-15.446-2.628-21.381-2.68-9.965-7.737-15.003-16.041-13.567-5.353.79-11.996,6.029-15.193,11.444-17.74,30.172-10.524,91.893-5.09,115.542c2.418,9.95,4.967,17.252,8.207,21.401c3.243,4.149,6.13,4.828,10.491,2.66c8.745-4.868,14.498-23.963,17.133-49.591c1.468-13.206,2.228-33.352,3.121-66.508Zm47.152,36.081c-3.025,1.179-4.362,3.43-4.286,6.759-.049,46.34-.011,72.144.103,77.137.051,2.219-1.577,3.92-3.793,3.971-2.219.051-3.924-1.574-3.974-3.793-.292-12.758-.42-30.514-.382-52.991-.149-43.005.873-58.846-1.989-99.015-.412-5.818-2.912-6.037-6.487-4.569l-.825.297c-4.662,2.325-8.156-4.809-3.494-7.136c14.275-6.708,31.782-5.722,45.549,1.732c15.43,7.416,24.359,21.642,21.436,39.468-1.693,10.86-7.869,19.881-18.534,26.784-1.637,1.148-3.281,2.017-4.928,2.888-3.012,1.734-3.24,3.958-.951,6.958c5.726,7.64,9.315,18.934,11.042,33.878.329,2.213.696,6.088,1.102,11.63.807,11.081,1.155,14.125,2.714,21.58.914,3.586,1.821,6.896,3.266,9.36.572.82,1.148,1.639,1.713,2.181l.572.819c1.382-.308,2.478-.888,3.563-2.023l.812-.85c3.233-4.236,9.449.615,6.215,4.852-6.201,7.911-14.496,9.211-20.013-1.484-3.184-5.755-5.069-15.423-5.755-21.234-.348-3.044-.722-7.198-1.134-13.016-.402-5.542-.762-9.14-1.085-11.075-1.465-15.505-4.757-25.974-12.12-32.465-2.27-2.168-4.489-2.117-7.514-.938l-.823.295Zm34.057-39.627c2.183-13.647-4.725-24.588-17.083-30.964-5.899-3.195-11.763-4.726-17.877-5.142-3.888-.188-5.778,2.076-5.417,5.675.921,16.073,1.631,34.925,1.564,56.293.095,4.16,2.916,6.037,6.759,4.284c18.144-7.351,29.356-14.545,32.054-30.146Zm43.586-32.347c-.266.264-.266.264-.266.531c0,.264-.529,1.326-.795,3.713c0,.531-.266,1.061-.266,1.858-1.061,8.222-.263,19.097.795,33.156.799,12.203,1.328,11.406.799,22.281-.266,5.306,1.59,5.837,5.303,5.837c3.184,0,6.101,0,8.224-.266c2.122-.264,3.979,1.327,4.245,3.448c0,2.122-1.594,3.979-3.713,3.979-2.655.266-5.573.266-9.285.266-3.45,0-5.306,0-5.572,5.305-1.324,25.995-1.59,46.686-.529,61.276.266,4.509.795,7.958,1.327,10.345c0,.531.263,1.061.263,1.326.266.266.532-1.592.532-2.387c0,2.653,1.061,4.509,3.979,5.04c5.835,1.061,13.527,0,21.222-.531c3.979-.264,6.896-.264,8.753-.264c2.122,0,3.713,1.59,3.713,3.713c0,2.122-1.59,3.714-3.713,3.714-3.45,0-14.591,1.059-18.038,1.326-8.753.264-15.12-.531-19.365-2.387-2.918-1.061-3.979-4.245-4.774-7.693-.795-2.918-1.327-6.632-1.59-11.67-1.061-16.181-.532-39.259.263-56.766.266-8.753.799-15.915,1.061-22.017.532-11.67.266-10.345-.795-23.342-1.061-14.059-1.856-25.729-.795-34.484.795-5.305,1.856-9.814,5.04-11.936c1.856-1.061,5.04-1.326,8.486-1.326c1.86,0,6.101,0,12.735.264c12.998.266,19.894.531,20.955.531c2.122-.264,3.979,1.326,4.241,3.448c0,1.061-.263,2.122-1.061,2.653-1.59,1.856-3.446,1.326-5.835,1.326-3.446,0-9.814,0-18.567-.264-6.63-.266-10.609-.266-12.203-.266-1.856,0-3.184,0-3.979.266h-.795v-.003Z"/></g><g id="eOIEPMf1KxL6" transform="translate(-20.417223-250.545495)"><path d="M41.199,375.207c1.939,17.738,1.109,10.823,2.217,19.542.831,6.012,3.048,18.337,6.374.3l1.939-10.222c6.096-35.773,8.313-51.401,9.978-66.132.274-3.007,1.109-6.613,3.6-8.118c2.217-.901,5.821.601,6.374,1.203.831.903.831,1.804,1.109,3.007.278.901.552,2.406.831,4.208.278,2.106,1.387,7.217,1.665,9.62c4.156,23.151,10.252,49.599,17.734,71.544c3.6,10.523,6.096,14.431,6.096,10.222c0-7.516,0-15.031-.278-22.547-1.939-47.2,5.217-90.49,15.469-129.872.831-2.406,2.77-3.608,4.987-3.007s3.048,3.007,2.773,5.41c-10.256,38.481-17.412,80.87-15.469,126.867.274,9.32.552,17.137.552,23.45-.278,5.712-.278,10.222-.552,13.528-.278,2.104-.556,3.606-.834,5.111-.831,1.502-1.383,3.908-3.878,4.809-1.387.302-2.77,0-3.878-.901-.831-.903-1.109-1.502-1.939-3.007-1.109-2.104-3.326-7.215-4.435-10.521-8.313-21.946-15.517-46.592-19.951-69.44-2.495-12.627-4.709-9.62-6.652,0-1.661,8.417-3.322,22.24-5.539,36.07L53.947,419.1c-.831,4.809-1.661,8.417-2.217,10.823-.278,1.502-.552,2.404-.83,3.307c0,.601,0,.901-.278,1.203-.274.3-.274.601-.274.901-.556.903-1.109,1.502-1.665,1.804-1.387.901-2.77.601-4.156-.302l-1.109-1.201-.552-1.203c-.278-.302-.278-.601-.556-1.504-.278-.901-.552-2.404-1.109-4.509-.831-3.606-1.661-9.019-3.048-15.932-2.492-12.929-7.539-40.391-11.696-79.171l-3.326-35.174c-.278-2.705-.834-6.613-1.665-12.026-1.661-10.823-1.048-21.54-.217-29.958c0-2.406,1.943-4.21,4.156-4.21c2.217.302,3.882,2.406,3.604,4.811-.278,7.514-1.448,17.031.217,27.554.83,5.109,1.387,9.318,1.661,12.625.278,3.908,1.665,15.634,3.604,35.174l6.708,43.095ZM155.828,265.752c.797,19.242-2.47,48.367-4.064,87.113-.267,8.58-1.267,20.023-.466,34.326.797,17.942,1.327,29.644,1.327,34.844c0,2.081-.594,3.641-2.722,3.641s-4.722-1.561-4.722-3.641c0-5.98-.534-17.422-1.331-34.585-.797-15.861-.064-27.565.47-35.105c1.594-35.366,4.861-63.969,4.06-86.073-.263-2.081,1.331-3.901,3.459-4.162c2.128.001,3.989,1.561,3.989,3.642Zm45.666,75.084c-.797.265,0,1.861,0,1.861c8.513,14.096,16.299,25.331,26.673,51.129c3.456,9.31,6.915,16.756,9.84,22.075c2.391,4.521-4.523,8.246-6.915,3.724-2.925-5.585-6.385-13.299-10.107-22.874-12.235-31.65-22.947-47.404-26.936-51.394-.267-.267-.534-.267-.797-.799-.267,1.863-1.064,5.32-1.064,8.246-.267,4.786-.267,9.308-.534,13.829c0,2.128-.267,8.384-.53,14.767-.801,13.032-.801,16.755-.801,26.861c0,5.053.267,9.842.534,13.831.267,2.126-1.331,3.989-3.459,3.989-2.124.265-3.989-1.331-3.989-3.457-.53-3.989-.797-8.778-.797-14.096c0-10.374,0-14.628.797-27.66.267-6.383.534-12.639.801-14.767c1.594-36.436-.936-70.086-3.064-96.681-.267-2.395-1.598-4.256-1.064-6.65l.53-1.329c.267-.799,1.064-1.596,2.128-1.863c21.011-5.053,37.235,2.532,46.545,15.299c9.306,11.968,10.509,30.586-1.459,45.479-7.182,9.308-15.957,15.957-25.797,20.212l-.535.268Zm-2.926-7.182c1.861-.797,2.128-.797,3.459-1.596c15.957-7.979,24.861-23.137,25.659-35.904.267-6.649-1.331-12.233-4.786-16.755-5.584-8.511-16.224-15.299-29.257-14.235-3.192.267-4.787,2.66-4.787,5.851c1.331,15.692,3.861,36.31,3.594,57.853c0,3.989.801,5.585,2.128,5.585c2.129,0,3.99-.799,3.99-.799Zm84.873-69.006c6.123.039,19.972-1.68,22.099-1.759c2.127-.078,3.778,1.441,3.855,3.544.039,1.05-.196,1.849-.963,2.666-.771.819-1.558,1.11-2.622,1.149-2.127.078-15.966,2.06-22.352,2.032-5.326-.069-9.58.088-12.493.459l-2.923.107c-1.812,1.382-2.788,3.786-2.788,3.786-.427,2.911-.803,5.137-.876,10.403-.192,9.22-.005,21.584.308,37.365l.116,6.153c.126,3.419,2.053,5.19,5.5,4.799c4.244-.418,9.027-.594,10.357-.643c2.113-.342,4.035,1.167,4.375,3.261.077,2.103-1.448,4.001-3.575,4.079-.787.293-3.18.381-7.167.527-1.593.059-3.18.379-4.507.428-2.923.107-4.443,2.269-4.327,5.422.27,7.361.56,12.247,1.165,21.436.682,11.293.904,17.339.952,18.652l.251,6.834c-.112,4.216.023,7.897.129,10.788.154,4.205.28,7.622.634,9.977.292.78.321,1.568.35,2.357l1.597-.059c1.33-.049,2.666.164,5.06.077l9.503,1.688c3.457-.127,7.443-.273,12.484-.721l7.973-.293c2.127-.078,3.778,1.441,3.855,3.542.077,2.103-1.458,3.739-3.585,3.817-.534.02-3.19.117-7.964.555-4.774.439-8.76.586-12.217.713-5.317.195-10.303-1.658-13.236-1.815l-2.39.088c-1.597.059-3.18.381-5.355-.856-.267.01-.543-.242-.816-.497-1.369-1.001-1.956-2.559-2.272-3.865-.305-1.04-.354-2.355-.412-3.933-.363-2.618-.489-6.034-.653-10.503-.106-2.891-.241-6.572-.129-10.788l-.251-6.834c-.01-.262-.299-5.147-1.145-20.909-1.689-31.524-2.712-62.386-2.334-81.089.064-5.528.439-7.754.847-11.191.671-3.446,1.342-6.892,3.421-8.286c2.078-1.392,5.259-1.771,9.236-2.181l13.285-.482Zm49.145-3.922c-.269-.313-.252-.924-.509-1.543-1.72-7.696,5.038-11.479,10.153-6.134.269.313.804.94,1.065,1.559.804.942,1.599,2.188,3.202,4.374c2.12,3.425,4.223,7.461,6.574,12.423c5.183,12.688,9.555,20.037,14.348,26.904c3.728,5.306,3.115,7.429,7.192.51c9.611-16.242,15.717-31.246,22.598-39.308.278.008.278.008.287-.297c0,0,.009-.305.295-.603.283-.297.578-.9.874-1.504c1.178-2.414,3.756-5.399,7.297-3.156.821.328,1.36.956,1.886,1.887l.521,1.239c-.009.307-.026.918.222,1.842.252.924.208,2.453.434,4.295.665,5.829.568,9.192,1.014,32.449.385,15.61,1.522,30.297,1.413,43.75.304,37.936-.147,57.314,2.123,84.602.208,2.453-1.248,4.859-3.464,4.796-2.225.241-4.398-1.349-4.328-3.795-2.548-27.295-2.076-47.285-2.093-85.518-.289-18.972-1.435-33.352-1.425-43.446-.499-11.637-.585-18.368-.532-20.202l-.152-4.285c.052-1.834-2.898,2.501-6.075,6.998-4.338,6.3-8.558,15.408-14.092,24.732l-2.33,3.91c-3.204,5.413-9.998,8.603-14.981.489-7.73-10.925-11.841-17.657-18.355-32.218-.778-1.858-1.556-3.714-2.085-4.647-2.077-4.952-2.078,4.836-2.252,10.947.156,4.287.016,9.176-.132,14.372-.314,11.002-1.063,27.497-2.243,49.486-1.462,21.981-5.207,38.476-5.521,49.478l-.288,10.084c-.4,4.272-.496,7.633-.566,10.079-.148,5.195.177,13.157,1.12,18.995.217,2.147-.97,4.865-2.917,5.117-2.225.241-4.681-1.053-4.889-3.504-1.703-8.308-1.493-15.642-.827-29.387.47-6.717.583-10.69.609-11.606.314-11.002,4.063-27.497,5.521-49.478c1.184-21.989,1.929-38.484,2.243-49.486.393-13.753.154-24.771-.423-33.658.009-.305.009-.305-.261-.617l-.251-.925Zm163.173,53.732c-.269,47.018-5.961,69.767-11.734,88-3.494,11.243-8.377,15.432-14.394,18.843-7.938,4.642-15.249,2.144-20.487-4.496-3.717-5.236-7.02-10.372-9.646-21.395-5.434-23.649-13.032-85.313,5.915-118.345c4.338-6.949,12.902-13.42,20.678-14.882c13.129-2.252,20.938,3.113,24.543,15.78c1.359,4.584,5.808,12.626,5.125,36.495Zm-7.785-12.829c-.11-8.238-2.805-15.446-4.628-21.381-2.68-9.965-7.737-12.003-16.041-10.567-5.353.79-11.996,6.029-15.193,11.444-17.74,30.172-10.524,88.893-5.09,112.542c2.418,9.95,4.967,14.252,8.207,18.401c3.243,4.149,6.13,4.828,10.491,2.66c6.208-3.455,16.369-19.709,19.133-46.591c1.468-13.207,2.228-33.353,3.121-66.508Zm45.152,36.08c-3.025,1.179-4.362,3.43-4.286,6.759-.049,46.34,2.989,72.144,3.103,77.137.051,2.219-1.577,3.92-3.793,3.971-2.219.051-3.924-1.574-3.974-3.793-.292-12.758-3.42-30.514-3.382-52.991-.149-43.005.873-58.846-1.989-99.015-.412-5.818-5.912-5.037-9.487-3.569l-.825.297c-4.662,2.325-8.156-4.809-3.494-7.136c14.275-6.708,34.782-6.722,48.549.732c15.43,7.416,27.359,21.642,24.436,39.468-1.693,10.86-10.869,19.881-21.534,26.784-1.637,1.148-3.281,2.017-4.928,2.888-3.012,1.734-3.24,3.958-.951,6.957c5.726,7.64,11.315,17.934,13.042,32.878.329,2.213.696,6.088,1.102,11.63.807,11.081,1.155,14.125,2.714,21.58.914,3.586-.179,7.896,1.266,10.36.572.82,1.148,1.639,1.713,2.181l.572.819c1.382-.308,2.478-.888,3.563-2.023l.812-.85c3.233-4.236,9.449.615,6.215,4.852-6.201,7.911-14.496,9.211-20.013-1.484-3.184-5.755-3.069-16.423-3.755-22.234-.348-3.044-.722-7.198-1.134-13.016-.402-5.542-.762-9.14-1.085-11.075-1.465-15.505-6.757-24.974-14.12-31.465-2.27-2.168-4.489-2.117-7.514-.938l-.823.296Zm37.057-39.626c2.183-13.647-7.725-24.588-20.083-30.964-5.899-3.195-11.763-4.726-17.877-5.142-3.888-.188-5.778,2.076-5.417,5.675.921,16.073,1.631,34.925,1.564,56.293.095,4.16,2.916,6.037,6.759,4.284c18.144-7.352,32.356-14.546,35.054-30.146Zm40.586-32.347c-.266.264-.266.264-.266.531c0,.264-.529,1.326-.795,3.713c0,.531-.266,1.061-.266,1.858-1.061,8.222-.263,19.097.795,33.156.799,12.203,1.328,9.406.799,20.281-.266,5.306,1.59,5.837,5.303,5.837c3.184,0,9.101,0,11.224-.266c2.122-.264,3.979,1.327,4.245,3.448c0,2.122-1.594,3.979-3.713,3.979-2.655.266-8.573.266-12.285.266-3.45,0-5.306,0-5.572,5.305-1.324,25.995-3.59,46.686-2.529,61.276.266,4.509.795,7.958,1.327,10.345c0,.531.263,1.061.263,1.326.266.266.532-1.592.532-2.387c0,2.653,1.061,4.509,3.979,5.04c5.835,1.061,15.527,0,23.222-.531c3.979-.264,6.896-.264,8.753-.264c2.122,0,3.713,1.59,3.713,3.713c0,2.122-1.59,3.714-3.713,3.714-3.45,0-14.591,2.059-18.038,2.326-8.753.264-17.12-1.531-21.365-3.387-2.918-1.061-3.979-4.245-4.774-7.693-.795-2.918-1.327-6.632-1.59-11.67-1.061-16.181,1.468-37.259,2.263-54.766.266-8.753.799-17.915,1.061-24.017.532-11.67.266-8.345-.795-21.342-1.061-14.059-1.856-25.729-.795-34.484.795-5.305,1.856-9.814,5.04-11.936c1.856-1.061,5.04-1.326,8.486-1.326c1.86,0,6.101,0,12.735.264c12.998.266,19.894,2.531,20.955,2.531c2.122-.264,3.979,1.326,4.241,3.448c0,1.061-.263,2.122-1.061,2.653-1.59,1.856-3.446,1.326-5.835,1.326-3.446,0-9.814-2-18.567-2.264-6.63-.266-10.609-.266-12.203-.266-1.856,0-3.184,0-3.979.266h-.795v-.003Z"/></g>
<script><![CDATA[
!function(t,n){"object"==typeof exports&&"undefined"!=typeof module?module.exports=n():"function"==typeof __SVGATOR_DEFINE__&&__SVGATOR_DEFINE__.amd?__SVGATOR_DEFINE__(n):((t="undefined"!=typeof globalThis?globalThis:t||self).__SVGATOR_PLAYER__=t.__SVGATOR_PLAYER__||{},t.__SVGATOR_PLAYER__["5c7f360c"]=n())}(this,(function(){"use strict";function t(t,n){var e=Object.keys(t);if(Object.getOwnPropertySymbols){var r=Object.getOwnPropertySymbols(t);n&&(r=r.filter((function(n){return Object.getOwnPropertyDescriptor(t,n).enumerable}))),e.push.apply(e,r)}return e}function n(n){for(var e=1;e<arguments.length;e++){var r=null!=arguments[e]?arguments[e]:{};e%2?t(Object(r),!0).forEach((function(t){u(n,t,r[t])})):Object.getOwnPropertyDescriptors?Object.defineProperties(n,Object.getOwnPropertyDescriptors(r)):t(Object(r)).forEach((function(t){Object.defineProperty(n,t,Object.getOwnPropertyDescriptor(r,t))}))}return n}function e(t){return(e="function"==typeof Symbol&&"symbol"==typeof Symbol.iterator?function(t){return typeof t}:function(t){return t&&"function"==typeof Symbol&&t.constructor===Symbol&&t!==Symbol.prototype?"symbol":typeof t})(t)}function r(t,n){if(!(t instanceof n))throw new TypeError("Cannot call a class as a function")}function i(t,n){for(var e=0;e<n.length;e++){var r=n[e];r.enumerable=r.enumerable||!1,r.configurable=!0,"value"in r&&(r.writable=!0),Object.defineProperty(t,r.key,r)}}function o(t,n,e){return n&&i(t.prototype,n),e&&i(t,e),t}function u(t,n,e){return n in t?Object.defineProperty(t,n,{value:e,enumerable:!0,configurable:!0,writable:!0}):t[n]=e,t}function a(t){return(a=Object.setPrototypeOf?Object.getPrototypeOf:function(t){return t.__proto__||Object.getPrototypeOf(t)})(t)}function l(t,n){return(l=Object.setPrototypeOf||function(t,n){return t.__proto__=n,t})(t,n)}function s(){if("undefined"==typeof Reflect||!Reflect.construct)return!1;if(Reflect.construct.sham)return!1;if("function"==typeof Proxy)return!0;try{return Boolean.prototype.valueOf.call(Reflect.construct(Boolean,[],(function(){}))),!0}catch(t){return!1}}function f(t,n,e){return(f=s()?Reflect.construct:function(t,n,e){var r=[null];r.push.apply(r,n);var i=new(Function.bind.apply(t,r));return e&&l(i,e.prototype),i}).apply(null,arguments)}function c(t,n){if(n&&("object"==typeof n||"function"==typeof n))return n;if(void 0!==n)throw new TypeError("Derived constructors may only return object or undefined");return function(t){if(void 0===t)throw new ReferenceError("this hasn't been initialised - super() hasn't been called");return t}(t)}function h(t,n,e){return(h="undefined"!=typeof Reflect&&Reflect.get?Reflect.get:function(t,n,e){var r=function(t,n){for(;!Object.prototype.hasOwnProperty.call(t,n)&&null!==(t=a(t)););return t}(t,n);if(r){var i=Object.getOwnPropertyDescriptor(r,n);return i.get?i.get.call(e):i.value}})(t,n,e||t)}function v(t){return function(t){if(Array.isArray(t))return y(t)}(t)||function(t){if("undefined"!=typeof Symbol&&null!=t[Symbol.iterator]||null!=t["@@iterator"])return Array.from(t)}(t)||function(t,n){if(!t)return;if("string"==typeof t)return y(t,n);var e=Object.prototype.toString.call(t).slice(8,-1);"Object"===e&&t.constructor&&(e=t.constructor.name);if("Map"===e||"Set"===e)return Array.from(t);if("Arguments"===e||/^(?:Ui|I)nt(?:8|16|32)(?:Clamped)?Array$/.test(e))return y(t,n)}(t)||function(){throw new TypeError("Invalid attempt to spread non-iterable instance.\nIn order to be iterable, non-array objects must have a [Symbol.iterator]() method.")}()}function y(t,n){(null==n||n>t.length)&&(n=t.length);for(var e=0,r=new Array(n);e<n;e++)r[e]=t[e];return r}function g(t,n,e){if(Number.isInteger(t))return t;var r=Math.pow(10,n);return Math[e]((+t+Number.EPSILON)*r)/r}Number.isInteger||(Number.isInteger=function(t){return"number"==typeof t&&isFinite(t)&&Math.floor(t)===t}),Number.EPSILON||(Number.EPSILON=2220446049250313e-31);var d=p(Math.pow(10,-6));function p(t){var n=arguments.length>1&&void 0!==arguments[1]?arguments[1]:6;return g(t,n,"round")}function m(t,n){var e=arguments.length>2&&void 0!==arguments[2]?arguments[2]:d;return Math.abs(t-n)<e}p(Math.pow(10,-2)),p(Math.pow(10,-4));var b=Math.PI/180;function w(t){return t}function A(t,n,e){var r=1-e;return 3*e*r*(t*r+n*e)+e*e*e}function _(){var t=arguments.length>0&&void 0!==arguments[0]?arguments[0]:0,n=arguments.length>1&&void 0!==arguments[1]?arguments[1]:0,e=arguments.length>2&&void 0!==arguments[2]?arguments[2]:1,r=arguments.length>3&&void 0!==arguments[3]?arguments[3]:1;return t<0||t>1||e<0||e>1?null:m(t,n)&&m(e,r)?w:function(i){if(i<=0)return t>0?i*n/t:0===n&&e>0?i*r/e:0;if(i>=1)return e<1?1+(i-1)*(r-1)/(e-1):1===e&&t<1?1+(i-1)*(n-1)/(t-1):1;for(var o,u=0,a=1;u<a;){var l=A(t,e,o=(u+a)/2);if(m(i,l))break;l<i?u=o:a=o}return A(n,r,o)}}function x(){return 1}function k(t){return 1===t?1:0}function S(){var t=arguments.length>0&&void 0!==arguments[0]?arguments[0]:1,n=arguments.length>1&&void 0!==arguments[1]?arguments[1]:0;if(1===t){if(0===n)return k;if(1===n)return x}var e=1/t;return function(t){return t>=1?1:(t+=n*e)-t%e}}var O=Math.sin,j=Math.cos,M=Math.acos,E=Math.asin,P=Math.tan,I=Math.atan2,R=Math.PI/180,F=180/Math.PI,N=Math.sqrt,T=function(){function t(){var n=arguments.length>0&&void 0!==arguments[0]?arguments[0]:1,e=arguments.length>1&&void 0!==arguments[1]?arguments[1]:0,i=arguments.length>2&&void 0!==arguments[2]?arguments[2]:0,o=arguments.length>3&&void 0!==arguments[3]?arguments[3]:1,u=arguments.length>4&&void 0!==arguments[4]?arguments[4]:0,a=arguments.length>5&&void 0!==arguments[5]?arguments[5]:0;r(this,t),this.m=[n,e,i,o,u,a],this.i=null,this.w=null,this.s=null}return o(t,[{key:"determinant",get:function(){var t=this.m;return t[0]*t[3]-t[1]*t[2]}},{key:"isIdentity",get:function(){if(null===this.i){var t=this.m;this.i=1===t[0]&&0===t[1]&&0===t[2]&&1===t[3]&&0===t[4]&&0===t[5]}return this.i}},{key:"point",value:function(t,n){var e=this.m;return{x:e[0]*t+e[2]*n+e[4],y:e[1]*t+e[3]*n+e[5]}}},{key:"translateSelf",value:function(){var t=arguments.length>0&&void 0!==arguments[0]?arguments[0]:0,n=arguments.length>1&&void 0!==arguments[1]?arguments[1]:0;if(!t&&!n)return this;var e=this.m;return e[4]+=e[0]*t+e[2]*n,e[5]+=e[1]*t+e[3]*n,this.w=this.s=this.i=null,this}},{key:"rotateSelf",value:function(){var t=arguments.length>0&&void 0!==arguments[0]?arguments[0]:0;if(t%=360){var n=O(t*=R),e=j(t),r=this.m,i=r[0],o=r[1];r[0]=i*e+r[2]*n,r[1]=o*e+r[3]*n,r[2]=r[2]*e-i*n,r[3]=r[3]*e-o*n,this.w=this.s=this.i=null}return this}},{key:"scaleSelf",value:function(){var t=arguments.length>0&&void 0!==arguments[0]?arguments[0]:1,n=arguments.length>1&&void 0!==arguments[1]?arguments[1]:1;if(1!==t||1!==n){var e=this.m;e[0]*=t,e[1]*=t,e[2]*=n,e[3]*=n,this.w=this.s=this.i=null}return this}},{key:"skewSelf",value:function(t,n){if(n%=360,(t%=360)||n){var e=this.m,r=e[0],i=e[1],o=e[2],u=e[3];t&&(t=P(t*R),e[2]+=r*t,e[3]+=i*t),n&&(n=P(n*R),e[0]+=o*n,e[1]+=u*n),this.w=this.s=this.i=null}return this}},{key:"resetSelf",value:function(){var t=arguments.length>0&&void 0!==arguments[0]?arguments[0]:1,n=arguments.length>1&&void 0!==arguments[1]?arguments[1]:0,e=arguments.length>2&&void 0!==arguments[2]?arguments[2]:0,r=arguments.length>3&&void 0!==arguments[3]?arguments[3]:1,i=arguments.length>4&&void 0!==arguments[4]?arguments[4]:0,o=arguments.length>5&&void 0!==arguments[5]?arguments[5]:0,u=this.m;return u[0]=t,u[1]=n,u[2]=e,u[3]=r,u[4]=i,u[5]=o,this.w=this.s=this.i=null,this}},{key:"recomposeSelf",value:function(){var t=arguments.length>0&&void 0!==arguments[0]?arguments[0]:null,n=arguments.length>1&&void 0!==arguments[1]?arguments[1]:null,e=arguments.length>2&&void 0!==arguments[2]?arguments[2]:null,r=arguments.length>3&&void 0!==arguments[3]?arguments[3]:null,i=arguments.length>4&&void 0!==arguments[4]?arguments[4]:null;return this.isIdentity||this.resetSelf(),t&&(t.x||t.y)&&this.translateSelf(t.x,t.y),n&&this.rotateSelf(n),e&&(e.x&&this.skewSelf(e.x,0),e.y&&this.skewSelf(0,e.y)),!r||1===r.x&&1===r.y||this.scaleSelf(r.x,r.y),i&&(i.x||i.y)&&this.translateSelf(i.x,i.y),this}},{key:"decompose",value:function(){var t=arguments.length>0&&void 0!==arguments[0]?arguments[0]:0,n=arguments.length>1&&void 0!==arguments[1]?arguments[1]:0,e=this.m,r=e[0]*e[0]+e[1]*e[1],i=[[e[0],e[1]],[e[2],e[3]]],o=N(r);if(0===o)return{origin:{x:p(e[4]),y:p(e[5])},translate:{x:p(t),y:p(n)},scale:{x:0,y:0},skew:{x:0,y:0},rotate:0};i[0][0]/=o,i[0][1]/=o;var u=e[0]*e[3]-e[1]*e[2]<0;u&&(o=-o);var a=i[0][0]*i[1][0]+i[0][1]*i[1][1];i[1][0]-=i[0][0]*a,i[1][1]-=i[0][1]*a;var l=N(i[1][0]*i[1][0]+i[1][1]*i[1][1]);if(0===l)return{origin:{x:p(e[4]),y:p(e[5])},translate:{x:p(t),y:p(n)},scale:{x:p(o),y:0},skew:{x:0,y:0},rotate:0};i[1][0]/=l,i[1][1]/=l,a/=l;var s=0;return i[1][1]<0?(s=M(i[1][1])*F,i[0][1]<0&&(s=360-s)):s=E(i[0][1])*F,u&&(s=-s),a=I(a,N(i[0][0]*i[0][0]+i[0][1]*i[0][1]))*F,u&&(a=-a),{origin:{x:p(e[4]),y:p(e[5])},translate:{x:p(t),y:p(n)},scale:{x:p(o),y:p(l)},skew:{x:p(a),y:0},rotate:p(s)}}},{key:"clone",value:function(){var t=this.m;return new this.constructor(t[0],t[1],t[2],t[3],t[4],t[5])}},{key:"toString",value:function(){var t=arguments.length>0&&void 0!==arguments[0]?arguments[0]:" ";if(null===this.s){var n=this.m.map((function(t){return p(t)}));1===n[0]&&0===n[1]&&0===n[2]&&1===n[3]?this.s="translate("+n[4]+t+n[5]+")":this.s="matrix("+n.join(t)+")"}return this.s}}],[{key:"create",value:function(t){return t?Array.isArray(t)?f(this,v(t)):t instanceof this?t.clone():(new this).recomposeSelf(t.origin,t.rotate,t.skew,t.scale,t.translate):new this}}]),t}();function q(t,n,e){return t>=.5?e:n}function B(t,n,e){return 0===t||n===e?n:t*(e-n)+n}function D(t,n,e){var r=B(t,n,e);return r<=0?0:r}function L(t,n,e){var r=B(t,n,e);return r<=0?0:r>=1?1:r}function C(t,n,e){return 0===t?n:1===t?e:{x:B(t,n.x,e.x),y:B(t,n.y,e.y)}}function V(t,n,e){var r=function(t,n,e){return Math.round(B(t,n,e))}(t,n,e);return r<=0?0:r>=255?255:r}function G(t,n,e){return 0===t?n:1===t?e:{r:V(t,n.r,e.r),g:V(t,n.g,e.g),b:V(t,n.b,e.b),a:B(t,null==n.a?1:n.a,null==e.a?1:e.a)}}function z(t,n){for(var e=[],r=0;r<t;r++)e.push(n);return e}function Y(t,n){if(--n<=0)return t;var e=(t=Object.assign([],t)).length;do{for(var r=0;r<e;r++)t.push(t[r])}while(--n>0);return t}var $,U=function(){function t(n){r(this,t),this.list=n,this.length=n.length}return o(t,[{key:"setAttribute",value:function(t,n){for(var e=this.list,r=0;r<this.length;r++)e[r].setAttribute(t,n)}},{key:"removeAttribute",value:function(t){for(var n=this.list,e=0;e<this.length;e++)n[e].removeAttribute(t)}},{key:"style",value:function(t,n){for(var e=this.list,r=0;r<this.length;r++)e[r].style[t]=n}}]),t}(),Q=/-./g,H=function(t,n){return n.toUpperCase()};function J(t){return"function"==typeof t?t:q}function Z(t){return t?"function"==typeof t?t:Array.isArray(t)?function(t){var n=arguments.length>1&&void 0!==arguments[1]?arguments[1]:w;if(!Array.isArray(t))return n;switch(t.length){case 1:return S(t[0])||n;case 2:return S(t[0],t[1])||n;case 4:return _(t[0],t[1],t[2],t[3])||n}return n}(t,null):function(t,n){var e=arguments.length>2&&void 0!==arguments[2]?arguments[2]:w;switch(t){case"linear":return w;case"steps":return S(n.steps||1,n.jump||0)||e;case"bezier":case"cubic-bezier":return _(n.x1||0,n.y1||0,n.x2||0,n.y2||0)||e}return e}(t.type,t.value,null):null}function K(t,n,e){var r=arguments.length>3&&void 0!==arguments[3]&&arguments[3],i=n.length-1;if(t<=n[0].t)return r?[0,0,n[0].v]:n[0].v;if(t>=n[i].t)return r?[i,1,n[i].v]:n[i].v;var o,u=n[0],a=null;for(o=1;o<=i;o++){if(!(t>n[o].t)){a=n[o];break}u=n[o]}return null==a?r?[i,1,n[i].v]:n[i].v:u.t===a.t?r?[o,1,a.v]:a.v:(t=(t-u.t)/(a.t-u.t),u.e&&(t=u.e(t)),r?[o,t,e(t,u.v,a.v)]:e(t,u.v,a.v))}function W(t,n){var e=arguments.length>2&&void 0!==arguments[2]?arguments[2]:null;return t&&t.length?"function"!=typeof n?null:("function"!=typeof e&&(e=null),function(r){var i=K(r,t,n);return null!=i&&e&&(i=e(i)),i}):null}function X(t,n){return t.t-n.t}function tt(t,n,r,i,o){var u,a="@"===r[0],l="#"===r[0],s=$[r],f=q;switch(a?(u=r.substr(1),r=u.replace(Q,H)):l&&(r=r.substr(1)),e(s)){case"function":if(f=s(i,o,K,Z,r,a,n,t),l)return f;break;case"string":f=W(i,J(s));break;case"object":if((f=W(i,J(s.i),s.f))&&"function"==typeof s.u)return s.u(n,f,r,a,t)}return f?function(t,n,e){if(arguments.length>3&&void 0!==arguments[3]&&arguments[3])return t instanceof U?function(r){return t.style(n,e(r))}:function(r){return t.style[n]=e(r)};if(Array.isArray(n)){var r=n.length;return function(i){var o=e(i);if(null==o)for(var u=0;u<r;u++)t[u].removeAttribute(n);else for(var a=0;a<r;a++)t[a].setAttribute(n,o)}}return function(r){var i=e(r);null==i?t.removeAttribute(n):t.setAttribute(n,i)}}(n,r,f,a):null}function nt(t,n,r,i){if(!i||"object"!==e(i))return null;var o=null,u=null;return Array.isArray(i)?u=function(t){if(!t||!t.length)return null;for(var n=0;n<t.length;n++)t[n].e&&(t[n].e=Z(t[n].e));return t.sort(X)}(i):(u=i.keys,o=i.data||null),u?tt(t,n,r,u,o):null}function et(t,n,e){if(!e)return null;var r=[];for(var i in e)if(e.hasOwnProperty(i)){var o=nt(t,n,i,e[i]);o&&r.push(o)}return r.length?r:null}function rt(t,n){if(!n.settings.duration||n.settings.duration<0)return null;var e,r,i,o,u,a=function(t,n){if(!n)return null;var e=[];if(Array.isArray(n))for(var r=n.length,i=0;i<r;i++){var o=n[i];if(2===o.length){var u=null;if("string"==typeof o[0])u=t.getElementById(o[0]);else if(Array.isArray(o[0])){u=[];for(var a=0;a<o[0].length;a++)if("string"==typeof o[0][a]){var l=t.getElementById(o[0][a]);l&&u.push(l)}u=u.length?1===u.length?u[0]:new U(u):null}if(u){var s=et(t,u,o[1]);s&&(e=e.concat(s))}}}else for(var f in n)if(n.hasOwnProperty(f)){var c=t.getElementById(f);if(c){var h=et(t,c,n[f]);h&&(e=e.concat(h))}}return e.length?e:null}(t,n.elements);return a?(e=a,r=n.settings,i=r.duration,o=e.length,u=null,function(t,n){var a=r.iterations||1/0,l=(r.alternate&&a%2==0)^r.direction>0?i:0,s=t%i,f=1+(t-s)/i;n*=r.direction,r.alternate&&f%2==0&&(n=-n);var c=!1;if(f>a)s=l,c=!0,-1===r.fill&&(s=r.direction>0?0:i);else if(n<0&&(s=i-s),s===u)return!1;u=s;for(var h=0;h<o;h++)e[h](s);return c}):null}function it(t,n){for(var e=n.querySelectorAll("svg"),r=0;r<e.length;r++)if(e[r].id===t.root&&!e[r].svgatorAnimation)return e[r].svgatorAnimation=!0,e[r];return null}function ot(t){var n=function(t){return t.shadowRoot};return document?Array.from(t.querySelectorAll(":not("+["a","area","audio","br","canvas","circle","datalist","embed","g","head","hr","iframe","img","input","link","object","path","polygon","rect","script","source","style","svg","title","track","video"].join()+")")).filter(n).map(n):[]}function ut(t){var n=arguments.length>1&&void 0!==arguments[1]?arguments[1]:document,e=arguments.length>2&&void 0!==arguments[2]?arguments[2]:0,r=it(t,n);if(r)return r;if(e>=20)return null;for(var i=ot(n),o=0;o<i.length;o++){var u=ut(t,i[o],e+1);if(u)return u}return null}function at(t,n){if($=n,!t||!t.root||!Array.isArray(t.animations))return null;var e=ut(t);if(!e)return null;var r=t.animations.map((function(t){return rt(e,t)})).filter((function(t){return!!t}));return r.length?{svg:e,animations:r,animationSettings:t.animationSettings,options:t.options||void 0}:null}function lt(t){var n=arguments.length>1&&void 0!==arguments[1]?arguments[1]:null,e=arguments.length>2&&void 0!==arguments[2]?arguments[2]:Number,r=arguments.length>3&&void 0!==arguments[3]?arguments[3]:"undefined"!=typeof BigInt&&BigInt,i="0x"+(t.replace(/[^0-9a-fA-F]+/g,"")||27);return n&&r&&e.isSafeInteger&&!e.isSafeInteger(+i)?e(r(i))%n+n:+i}function st(t,n,e){return!t||!e||n>t.length?t:t.substring(0,n)+st(t.substring(n+1),e,e)}function ft(t){var n=arguments.length>1&&void 0!==arguments[1]?arguments[1]:27;return!t||t%n?t%n:[0,1].includes(n)?n:ft(t/n,n)}function ct(t,n,e){if(t&&t.length){var r=lt(e),i=ft(r)+5,o=st(t,ft(r,5),i);return o=o.replace(/\x7c$/g,"==").replace(/\x2f$/g,"="),o=function(t,n,e){var r=+("0x"+t.substring(0,4));t=t.substring(4);for(var i=lt(n,r)%r+e%27,o=[],u=0;u<t.length;u+=2)if("|"!==t[u]){var a=+("0x"+t[u]+t[u+1])-i;o.push(a)}else{var l=+("0x"+t.substring(u+1,u+1+4))-i;u+=3,o.push(l)}return String.fromCharCode.apply(String,o)}(o=(o=atob(o)).replace(/[\x41-\x5A]/g,""),n,r),o=JSON.parse(o)}}var ht=[{key:"alternate",def:!1},{key:"fill",def:1},{key:"iterations",def:0},{key:"direction",def:1},{key:"speed",def:1},{key:"fps",def:100}],vt=function(){function t(n,e){var i=this,o=arguments.length>2&&void 0!==arguments[2]?arguments[2]:null;r(this,t),this._id=0,this._running=!1,this._rollingBack=!1,this._animations=n,this._settings=e,(!o||o<"2022-05-02")&&delete this._settings.speed,ht.forEach((function(t){i._settings[t.key]=i._settings[t.key]||t.def})),this.duration=e.duration,this.offset=e.offset||0,this.rollbackStartOffset=0}return o(t,[{key:"alternate",get:function(){return this._settings.alternate}},{key:"fill",get:function(){return this._settings.fill}},{key:"iterations",get:function(){return this._settings.iterations}},{key:"direction",get:function(){return this._settings.direction}},{key:"speed",get:function(){return this._settings.speed}},{key:"fps",get:function(){return this._settings.fps}},{key:"maxFiniteDuration",get:function(){return this.iterations>0?this.iterations*this.duration:this.duration}},{key:"_apply",value:function(t){for(var n=arguments.length>1&&void 0!==arguments[1]?arguments[1]:{},e=this._animations,r=e.length,i=0,o=0;o<r;o++)n[o]?i++:(n[o]=e[o](t,1),n[o]&&i++);return i}},{key:"_rollback",value:function(t){var n=this,e=1/0,r=null;this.rollbackStartOffset=t,this._rollingBack=!0,this._running=!0;this._id=window.requestAnimationFrame((function i(o){if(n._rollingBack){null==r&&(r=o);var u=Math.round(t-(o-r)*n.speed);if(u>n.duration&&e!==1/0){var a=!!n.alternate&&u/n.duration%2>1,l=u%n.duration;u=(l+=a?n.duration:0)||n.duration}var s=(n.fps?1e3/n.fps:0)*n.speed,f=Math.max(0,u);f<=e-s&&(n.offset=f,e=f,n._apply(f));var c=n.iterations>0&&-1===n.fill&&u>=n.maxFiniteDuration;(u<=0||n.offset<u||c)&&n.stop(),n._id=window.requestAnimationFrame(i)}}))}},{key:"_start",value:function(){var t=this,n=arguments.length>0&&void 0!==arguments[0]?arguments[0]:0,e=-1/0,r=null,i={};this._running=!0;var o=function o(u){null==r&&(r=u);var a=Math.round((u-r)*t.speed+n),l=(t.fps?1e3/t.fps:0)*t.speed;if(a>=e+l&&!t._rollingBack&&(t.offset=a,e=a,t._apply(a,i)===t._animations.length))return void t.pause(!0);t._id=window.requestAnimationFrame(o)};this._id=window.requestAnimationFrame(o)}},{key:"_pause",value:function(){this._id&&window.cancelAnimationFrame(this._id),this._running=!1}},{key:"play",value:function(){if(!this._running)return this._rollingBack?this._rollback(this.offset):this._start(this.offset)}},{key:"stop",value:function(){this._pause(),this.offset=0,this.rollbackStartOffset=0,this._rollingBack=!1,this._apply(0)}},{key:"reachedToEnd",value:function(){return this.iterations>0&&this.offset>=this.iterations*this.duration}},{key:"restart",value:function(){var t=arguments.length>0&&void 0!==arguments[0]&&arguments[0];this.stop(t),this.play(t)}},{key:"pause",value:function(){this._pause()}},{key:"reverse",value:function(){this.direction=-this.direction}}],[{key:"build",value:function(t,n){delete t.animationSettings,t.options=ct(t.options,t.root,"5c7f360c"),t.animations.map((function(n){n.settings=ct(n.s,t.root,"5c7f360c"),delete n.s,t.animationSettings||(t.animationSettings=n.settings)}));var e=t.version;if(!(t=at(t,n)))return null;var r=t.options||{},i=new this(t.animations,t.animationSettings,e);return{el:t.svg,options:r,player:i}}},{key:"push",value:function(t){return this.build(t)}},{key:"init",value:function(){var t=this,n=window.__SVGATOR_PLAYER__&&window.__SVGATOR_PLAYER__["5c7f360c"];Array.isArray(n)&&n.splice(0).forEach((function(n){return t.build(n)}))}}]),t}();function yt(t){return p(t)+""}function gt(t){var n=arguments.length>1&&void 0!==arguments[1]?arguments[1]:" ";return t&&t.length?t.map(yt).join(n):""}function dt(t){if(!t)return"transparent";if(null==t.a||t.a>=1){var n=function(t){return 1===(t=parseInt(t).toString(16)).length?"0"+t:t},e=function(t){return t.charAt(0)===t.charAt(1)},r=n(t.r),i=n(t.g),o=n(t.b);return e(r)&&e(i)&&e(o)&&(r=r.charAt(0),i=i.charAt(0),o=o.charAt(0)),"#"+r+i+o}return"rgba("+t.r+","+t.g+","+t.b+","+t.a+")"}function pt(t){return t?"url(#"+t+")":"none"}!function(){for(var t=0,n=["ms","moz","webkit","o"],e=0;e<n.length&&!window.requestAnimationFrame;++e)window.requestAnimationFrame=window[n[e]+"RequestAnimationFrame"],window.cancelAnimationFrame=window[n[e]+"CancelAnimationFrame"]||window[n[e]+"CancelRequestAnimationFrame"];window.requestAnimationFrame||(window.requestAnimationFrame=function(n){var e=Date.now(),r=Math.max(0,16-(e-t)),i=window.setTimeout((function(){n(e+r)}),r);return t=e+r,i},window.cancelAnimationFrame=window.clearTimeout)}();var mt={f:null,i:function(t,n,e){return 0===t?n:1===t?e:{x:D(t,n.x,e.x),y:D(t,n.y,e.y)}},u:function(t,n){return function(e){var r=n(e);t.setAttribute("rx",yt(r.x)),t.setAttribute("ry",yt(r.y))}}},bt={f:null,i:function(t,n,e){return 0===t?n:1===t?e:{width:D(t,n.width,e.width),height:D(t,n.height,e.height)}},u:function(t,n){return function(e){var r=n(e);t.setAttribute("width",yt(r.width)),t.setAttribute("height",yt(r.height))}}};Object.freeze({M:2,L:2,Z:0,H:1,V:1,C:6,Q:4,T:2,S:4,A:7});var wt={},At=null;function _t(t){var n=function(){if(At)return At;if("object"!==("undefined"==typeof document?"undefined":e(document))||!document.createElementNS)return{};var t=document.createElementNS("http://www.w3.org/2000/svg","svg");return t&&t.style?(t.style.position="absolute",t.style.opacity="0.01",t.style.zIndex="-9999",t.style.left="-9999px",t.style.width="1px",t.style.height="1px",At={svg:t}):{}}().svg;if(!n)return function(t){return null};var r=document.createElementNS(n.namespaceURI,"path");r.setAttributeNS(null,"d",t),r.setAttributeNS(null,"fill","none"),r.setAttributeNS(null,"stroke","none"),n.appendChild(r);var i=r.getTotalLength();return function(t){var n=r.getPointAtLength(i*t);return{x:n.x,y:n.y}}}function xt(t){return wt[t]?wt[t]:wt[t]=_t(t)}function kt(t,n,e,r){if(!t||!r)return!1;var i=["M",t.x,t.y];if(n&&e&&(i.push("C"),i.push(n.x),i.push(n.y),i.push(e.x),i.push(e.y)),n?!e:e){var o=n||e;i.push("Q"),i.push(o.x),i.push(o.y)}return n||e||i.push("L"),i.push(r.x),i.push(r.y),i.join(" ")}function St(t,n,e,r){var i=arguments.length>4&&void 0!==arguments[4]?arguments[4]:1,o=kt(t,n,e,r),u=xt(o);try{return u(i)}catch(t){return null}}function Ot(t,n,e){return t+(n-t)*e}function jt(t,n,e){var r=arguments.length>3&&void 0!==arguments[3]&&arguments[3],i={x:Ot(t.x,n.x,e),y:Ot(t.y,n.y,e)};return r&&(i.a=Mt(t,n)),i}function Mt(t,n){return Math.atan2(n.y-t.y,n.x-t.x)}function Et(t,n,e,r){var i=1-r;return i*i*t+2*i*r*n+r*r*e}function Pt(t,n,e,r){return 2*(1-r)*(n-t)+2*r*(e-n)}function It(t,n,e,r){var i=arguments.length>4&&void 0!==arguments[4]&&arguments[4],o=St(t,n,null,e,r);return o||(o={x:Et(t.x,n.x,e.x,r),y:Et(t.y,n.y,e.y,r)}),i&&(o.a=Rt(t,n,e,r)),o}function Rt(t,n,e,r){return Math.atan2(Pt(t.y,n.y,e.y,r),Pt(t.x,n.x,e.x,r))}function Ft(t,n,e,r,i){var o=i*i;return i*o*(r-t+3*(n-e))+3*o*(t+e-2*n)+3*i*(n-t)+t}function Nt(t,n,e,r,i){var o=1-i;return 3*(o*o*(n-t)+2*o*i*(e-n)+i*i*(r-e))}function Tt(t,n,e,r,i){var o=arguments.length>5&&void 0!==arguments[5]&&arguments[5],u=St(t,n,e,r,i);return u||(u={x:Ft(t.x,n.x,e.x,r.x,i),y:Ft(t.y,n.y,e.y,r.y,i)}),o&&(u.a=qt(t,n,e,r,i)),u}function qt(t,n,e,r,i){return Math.atan2(Nt(t.y,n.y,e.y,r.y,i),Nt(t.x,n.x,e.x,r.x,i))}function Bt(t,n,e){var r=arguments.length>3&&void 0!==arguments[3]&&arguments[3];if(Lt(n)){if(Ct(e))return It(n,e.start,e,t,r)}else if(Lt(e)){if(Vt(n))return It(n,n.end,e,t,r)}else{if(Vt(n))return Ct(e)?Tt(n,n.end,e.start,e,t,r):It(n,n.end,e,t,r);if(Ct(e))return It(n,e.start,e,t,r)}return jt(n,e,t,r)}function Dt(t,n,e){var r=Bt(t,n,e,!0);return r.a=function(t){return arguments.length>1&&void 0!==arguments[1]&&arguments[1]?t+Math.PI:t}(r.a)/b,r}function Lt(t){return!t.type||"corner"===t.type}function Ct(t){return null!=t.start&&!Lt(t)}function Vt(t){return null!=t.end&&!Lt(t)}var Gt=new T;var zt={f:yt,i:B},Yt={f:yt,i:L};function $t(t,n,e){return t.map((function(t){return function(t,n,e){var r=t.v;if(!r||"g"!==r.t||r.s||!r.v||!r.r)return t;var i=e.getElementById(r.r),o=i&&i.querySelectorAll("stop")||[];return r.s=r.v.map((function(t,n){var e=o[n]&&o[n].getAttribute("offset");return{c:t,o:e=p(parseInt(e)/100)}})),delete r.v,t}(t,0,e)}))}var Ut={gt:"gradientTransform",c:{x:"cx",y:"cy"},rd:"r",f:{x:"x1",y:"y1"},to:{x:"x2",y:"y2"}};function Qt(t,n,r,i,o,u,a,l){return $t(t,0,l),n=function(t,n,e){for(var r,i,o,u=t.length-1,a={},l=0;l<=u;l++)(r=t[l]).e&&(r.e=n(r.e)),r.v&&"g"===(i=r.v).t&&i.r&&(o=e.getElementById(i.r))&&(a[i.r]={e:o,s:o.querySelectorAll("stop")});return a}(t,i,l),function(i){var o=r(i,t,Ht);if(!o)return"none";if("c"===o.t)return dt(o.v);if("g"===o.t){if(!n[o.r])return pt(o.r);var u=n[o.r];return function(t,n){for(var e=t.s,r=e.length;r<n.length;r++){var i=e[e.length-1].cloneNode();i.id=Kt(i.id),t.e.appendChild(i),e=t.s=t.e.querySelectorAll("stop")}for(var o=0,u=e.length,a=n.length-1;o<u;o++)e[o].setAttribute("stop-color",dt(n[Math.min(o,a)].c)),e[o].setAttribute("offset",n[Math.min(o,a)].o)}(u,o.s),Object.keys(Ut).forEach((function(t){if(void 0!==o[t])if("object"!==e(Ut[t])){var n,r="gt"===t?(n=o[t],Array.isArray(n)?"matrix("+n.join(" ")+")":""):o[t],i=Ut[t];u.e.setAttribute(i,r)}else Object.keys(Ut[t]).forEach((function(n){if(void 0!==o[t][n]){var e=o[t][n],r=Ut[t][n];u.e.setAttribute(r,e)}}))})),pt(o.r)}return"none"}}function Ht(t,e,r){if(0===t)return e;if(1===t)return r;if(e&&r){var i=e.t;if(i===r.t)switch(e.t){case"c":return{t:i,v:G(t,e.v,r.v)};case"g":if(e.r===r.r){var o={t:i,s:Jt(t,e.s,r.s),r:e.r};return e.gt&&r.gt&&(o.gt=function(t,n,e){var r=n.length;if(r!==e.length)return q(t,n,e);for(var i=new Array(r),o=0;o<r;o++)i[o]=B(t,n[o],e[o]);return i}(t,e.gt,r.gt)),e.c?(o.c=C(t,e.c,r.c),o.rd=D(t,e.rd,r.rd)):e.f&&(o.f=C(t,e.f,r.f),o.to=C(t,e.to,r.to)),o}}if("c"===e.t&&"g"===r.t||"c"===r.t&&"g"===e.t){var u="c"===e.t?e:r,a="g"===e.t?n({},e):n({},r),l=a.s.map((function(t){return{c:u.v,o:t.o}}));return a.s="c"===e.t?Jt(t,l,a.s):Jt(t,a.s,l),a}}return q(t,e,r)}function Jt(t,n,e){if(n.length===e.length)return n.map((function(n,r){return Zt(t,n,e[r])}));for(var r=Math.max(n.length,e.length),i=[],o=0;o<r;o++){var u=Zt(t,n[Math.min(o,n.length-1)],e[Math.min(o,e.length-1)]);i.push(u)}return i}function Zt(t,n,e){return{o:L(t,n.o,e.o||0),c:G(t,n.c,e.c||{})}}function Kt(t){return t.replace(/-fill-([0-9]+)$/,(function(t,n){return"-fill-"+(+n+1)}))}var Wt={fill:Qt,"fill-opacity":Yt,stroke:Qt,"stroke-opacity":Yt,"stroke-width":zt,"stroke-dashoffset":{f:yt,i:B},"stroke-dasharray":{f:function(t){var n=arguments.length>1&&void 0!==arguments[1]?arguments[1]:" ";return t&&t.length>0&&(t=t.map((function(t){return p(t,4)}))),gt(t,n)},i:function(t,n,e){var r,i,o,u=n.length,a=e.length;if(u!==a)if(0===u)n=z(u=a,0);else if(0===a)a=u,e=z(u,0);else{var l=(o=(r=u)*(i=a)/function(t,n){for(var e;n;)e=n,n=t%n,t=e;return t||1}(r,i))<0?-o:o;n=Y(n,Math.floor(l/u)),e=Y(e,Math.floor(l/a)),u=a=l}for(var s=[],f=0;f<u;f++)s.push(p(D(t,n[f],e[f])));return s}},opacity:Yt,transform:function(t,n,r,i){if(!(t=function(t,n){if(!t||"object"!==e(t))return null;var r=!1;for(var i in t)t.hasOwnProperty(i)&&(t[i]&&t[i].length?(t[i].forEach((function(t){t.e&&(t.e=n(t.e))})),r=!0):delete t[i]);return r?t:null}(t,i)))return null;var o=function(e,i,o){var u=arguments.length>3&&void 0!==arguments[3]?arguments[3]:null;return t[e]?r(i,t[e],o):n&&n[e]?n[e]:u};return n&&n.a&&t.o?function(n){var e=r(n,t.o,Dt);return Gt.recomposeSelf(e,o("r",n,B,0)+e.a,o("k",n,C),o("s",n,C),o("t",n,C)).toString()}:function(t){return Gt.recomposeSelf(o("o",t,Bt,null),o("r",t,B,0),o("k",t,C),o("s",t,C),o("t",t,C)).toString()}},r:zt,"#size":bt,"#radius":mt,_:function(t,n){if(Array.isArray(t))for(var e=0;e<t.length;e++)this[t[e]]=n;else this[t]=n}},Xt=function(t){!function(t,n){if("function"!=typeof n&&null!==n)throw new TypeError("Super expression must either be null or a function");t.prototype=Object.create(n&&n.prototype,{constructor:{value:t,writable:!0,configurable:!0}}),n&&l(t,n)}(u,t);var n,e,i=(n=u,e=s(),function(){var t,r=a(n);if(e){var i=a(this).constructor;t=Reflect.construct(r,arguments,i)}else t=r.apply(this,arguments);return c(this,t)});function u(){return r(this,u),i.apply(this,arguments)}return o(u,null,[{key:"build",value:function(t){var n=h(a(u),"build",this).call(this,t,Wt);if(!n)return null;n.el,n.options,function(t,n,e){t.play()}(n.player)}}]),u}(vt);return Xt.init(),Xt}));
(function(s,i,o,w,d,a,b){w[o]=w[o]||{};w[o][s]=w[o][s]||[];w[o][s].push(i);})('5c7f360c',{"root":"eOIEPMf1KxL1","version":"2022-05-04","animations":[{"elements":{"eOIEPMf1KxL2":{"opacity":[{"t":0,"v":0,"e":[1,0]},{"t":180,"v":1,"e":[1,1]},{"t":270,"v":1,"e":[1,0]}]},"eOIEPMf1KxL4":{"opacity":[{"t":0,"v":0,"e":[1,0]},{"t":90,"v":1,"e":[1,0]},{"t":180,"v":0,"e":[1,0]},{"t":270,"v":0,"e":[1,0]}]},"eOIEPMf1KxL6":{"opacity":[{"t":0,"v":1,"e":[1,0]},{"t":90,"v":0,"e":[1,0]},{"t":270,"v":0,"e":[1,0]}]}},"s":"MDDA1Yjg3MmU3MDgxN2IU2ZDgwNzU3YjdhMmUE0NjNlNDMzYzM4MmU3KMDc1N2VGNzE2ZjgwNWzU3YjdhMmU0NjNkMzUgyZTc1ODA3MTdlWDZMkODA3NTdiSjdhN2YyXZTQ2M2MzODJlNzI3NNTc4NzgyZTQ2M2QzODEJlSTZkNzg4MDcxN2UA3YUE2ZDgwNzEyZTQ2LNzI2ZDc4N2Y3MTM4RQzJlN2ZMN2M3MTcxNzDAyZTQ2M2QzODJlUTcJyN2M3ZjJlNDY0MjNjPODk/"}],"options":"MFDAxMDg4MmY4MDgxNmHU3Zkc4MTJmNDcyZjcA5WDdjNmVQNzEyZjhhP"},'__SVGATOR_PLAYER__',window,document)
]]></script>
</svg>
