<?xml version="1.0" encoding="utf-8"?><svg xmlns="http://www.w3.org/2000/svg" width="667" height="708" viewBox="0 0 667 708"><g fill="currentColor"><path d="M40.199 138.657c1.939 17.738 1.109 10.823 2.217 19.542.831 6.012 3.048 18.337 6.374.3l1.939-10.222c6.096-35.773 8.313-48.401 9.978-63.132.274-3.007 1.109-6.613 3.6-8.118 2.217-.901 5.821.601 6.374 1.203.831.903.831 1.804 1.109 3.007.278.901.552 2.406.831 4.208.278 2.106 1.387 7.217 1.665 9.62 4.156 23.151 10.252 46.599 17.734 68.544 3.6 10.523 6.096 14.431 6.096 10.222 0-7.516 0-15.031-.278-22.547-1.939-47.2 2.217-90.49 12.469-129.872.831-2.406 2.77-3.608 4.987-3.007s3.048 3.007 2.773 5.41c-10.256 38.481-14.412 80.87-12.469 126.867.274 9.32.552 17.137.552 23.45-.278 5.712-.278 10.222-.552 13.528-.278 2.104-.556 3.606-.834 5.111-.831 1.502-1.383 3.908-3.878 4.809-1.387.302-2.77 0-3.878-.901-.831-.903-1.109-1.502-1.939-3.007-1.109-2.104-3.326-7.215-4.435-10.521-8.313-21.946-15.517-43.592-19.951-66.44-2.495-12.627-4.709-9.62-6.652 0-1.661 8.417-3.322 19.24-5.539 33.07l-5.543 32.769c-.831 4.809-1.661 8.417-2.217 10.823-.278 1.502-.552 2.404-.83 3.307 0 .601 0 .901-.278 1.203-.274.3-.274.601-.274.901-.556.903-1.109 1.502-1.665 1.804-1.387.901-2.77.601-4.156-.302l-1.109-1.201-.552-1.203c-.278-.302-.278-.601-.556-1.504-.278-.901-.552-2.404-1.109-4.509-.831-3.606-1.661-9.019-3.048-15.932-2.492-12.929-5.539-42.391-9.696-81.171l-3.329-35.175c-.278-2.705-.834-6.613-1.665-12.026-1.661-10.823-3.048-19.54-2.217-27.958 0-2.406 1.943-4.21 4.156-4.21 2.217.302 3.882 2.406 3.604 4.811-.278 7.514.552 15.031 2.217 25.554.83 5.109 1.387 9.318 1.661 12.625.278 3.908 1.665 15.634 3.604 35.174l4.709 45.096zM151.828 29.202c.797 19.242.53 48.367-1.064 87.113-.267 8.58-.267 20.023.534 34.326.797 17.942 1.327 29.644 1.327 34.844 0 2.081-1.594 3.641-3.722 3.641s-3.722-1.561-3.722-3.641c0-5.98-.534-17.422-1.331-34.585-.797-15.861-1.064-27.565-.53-35.105 1.594-35.366 1.861-63.969 1.06-86.073-.263-2.081 1.331-3.901 3.459-4.162 2.128 0 3.989 1.561 3.989 3.642zM200.494 104.285c-.797.265 0 1.861 0 1.861 8.513 14.096 13.299 26.331 23.673 52.129 3.456 9.31 6.915 16.756 9.84 22.075 2.391 4.521-4.523 8.246-6.915 3.724-2.925-5.585-6.385-13.299-10.107-22.874-12.235-31.65-19.947-48.404-23.936-52.394-.267-.267-.534-.267-.797-.799-.267 1.863-1.064 5.32-1.064 8.246-.267 4.786-.267 9.308-.534 13.829 0 2.128-.267 6.384-.53 12.767-.801 13.032-.801 16.755-.801 26.861 0 5.053.267 9.842.534 13.831.267 2.126-1.331 3.989-3.459 3.989-2.124.265-3.989-1.331-3.989-3.457-.53-3.989-.797-8.778-.797-14.096 0-10.374 0-14.628.797-27.66.267-6.383.534-10.639.801-12.767 1.594-36.436 1.064-68.086-1.064-94.681-.267-2.395-1.598-4.256-1.064-6.65l.53-1.329c.267-.799 1.064-1.596 2.128-1.863 21.011-5.053 37.235.532 46.545 13.299 9.306 11.968 8.509 30.586-3.459 45.479-7.182 9.308-15.957 15.957-25.797 20.212l-.535.268zm-2.926-7.181c1.861-.797 2.128-.797 3.459-1.596 15.957-7.979 26.861-23.137 27.659-35.904.267-6.649-1.331-12.233-4.786-16.755-5.584-8.511-16.224-13.299-29.257-12.235-3.192.267-4.787 2.66-4.787 5.851 1.331 15.692 1.861 34.31 1.594 55.853 0 3.989.801 5.585 2.128 5.585 2.129 0 3.99-.799 3.99-.799zM282.441 26.098c6.123.039 19.972.32 22.099.241 2.127-.078 3.778 1.441 3.855 3.544.039 1.05-.196 1.849-.963 2.666-.771.819-1.558 1.11-2.622 1.149-2.127.078-15.966.06-22.352.032-5.326-.069-9.58.088-12.493.459l-2.923.107c-1.812 1.382-2.788 3.786-2.788 3.786-.427 2.911-.803 7.137-.876 12.403-.192 9.22-.005 21.584.308 37.365l.116 3.153c.126 3.419 2.053 5.19 5.5 4.799 4.244-.418 9.027-.594 10.357-.643 2.113-.342 4.035 1.167 4.375 3.261.077 2.103-1.448 4.001-3.575 4.079-.787.293-3.18.381-7.167.527-1.593.059-3.18.379-4.507.428-2.923.107-4.443 2.269-4.327 5.422.27 7.361.56 15.247 1.165 24.436.682 11.293.904 17.339.952 18.652l.251 6.834c-.112 4.216.023 7.897.129 10.788.154 4.205.28 7.622.634 9.977.292.78.321 1.568.35 2.357l1.597-.059c1.33-.049 2.666.164 5.06.077l8.503-.312c3.457-.127 7.443-.273 12.484-.721l7.973-.293c2.127-.078 3.778 1.441 3.855 3.542.077 2.103-1.458 3.739-3.585 3.817-.534.02-3.19.117-7.964.555-4.774.44-8.76.586-12.217.713-5.317.195-9.303.342-12.236.185l-2.39.088c-1.597.059-3.18.381-5.355-.856-.267.01-.543-.242-.816-.497-1.369-1.001-1.956-2.559-2.272-3.865-.305-1.04-.354-2.355-.412-3.933-.363-2.618-.489-6.034-.653-10.503-.106-2.891-.241-6.572-.129-10.788l-.251-6.834c-.01-.262-.299-8.148-1.145-23.909-1.689-31.524-2.712-59.386-2.334-78.089.064-5.528.439-9.754.847-13.191.671-3.446 1.342-6.892 3.421-8.286 2.078-1.392 5.259-1.771 9.236-2.181l13.285-.482zM331.586 24.175c-.269-.313-.252-.924-.509-1.543-1.72-7.696 5.038-11.479 10.153-6.134.269.313.804.94 1.065 1.559.804.942 1.599 2.188 3.202 4.374 2.12 3.425 4.223 7.461 6.574 12.423 5.183 12.688 7.555 17.037 12.348 23.904 3.728 5.306 3.115 7.429 7.192.51 9.611-16.242 17.717-28.246 24.598-36.308.278.008.278.008.287-.297 0 0 .009-.305.295-.603.283-.297.578-.9.874-1.504 1.178-2.414 3.756-5.399 7.297-3.156.821.328 1.36.956 1.886 1.887l.521 1.239c-.009.307-.026.918.222 1.842.252.924.208 2.453.434 4.295.665 5.829.568 9.192 1.014 32.449.385 15.61.522 30.297.413 43.75.304 37.936.853 67.314 3.123 94.602.208 2.453-1.248 4.859-3.464 4.796-2.225.241-4.398-1.349-4.328-3.795-2.548-27.295-3.076-57.285-3.093-95.518-.289-18.972-.435-33.352-.425-43.446-.499-11.637-.585-18.368-.532-20.202l-.152-4.285c.052-1.834-3.898.501-7.075 4.998-4.338 6.3-9.558 14.408-15.092 23.732l-2.33 3.91c-3.204 5.413-9.998 8.603-14.981.489-7.73-10.925-9.841-14.657-16.355-29.218-.778-1.858-1.556-3.713-2.085-4.647-2.077-4.952-2.078 4.836-2.252 10.947.156 4.287.016 9.176-.132 14.372-.314 11.002-1.063 27.497-2.243 49.486-1.462 21.981-2.207 38.476-2.521 49.478l-.288 10.084c-.4 4.272-.496 7.633-.566 10.079-.148 5.195.177 13.157 1.12 18.995.217 2.147-.97 4.865-2.917 5.117-2.225.241-4.681-1.053-4.889-3.504-1.703-8.308-1.493-15.642-.827-29.387.47-6.717.583-10.69.609-11.606.314-11.002 1.063-27.497 2.521-49.478 1.184-21.989 1.929-38.484 2.243-49.486.393-13.753.154-24.771-.423-33.658.009-.305.009-.305-.261-.617l-.251-.925zM491.759 77.907c-.269 46.998-3.355 71.011-8.734 88-3.494 11.243-8.377 18.432-14.394 21.843-7.938 4.642-15.249 2.144-20.487-4.496-3.717-5.236-7.02-13.372-9.646-24.395-5.434-23.649-13.032-88.313 5.915-121.345 4.338-6.949 12.902-13.42 20.678-14.882 13.129-2.252 20.938 6.113 24.543 18.78 1.359 4.584 2.808 12.626 2.125 36.495zm-6.785-12.829c-.11-8.238-.805-15.446-2.628-21.381-2.68-9.965-7.737-15.003-16.041-13.567-5.353.79-11.996 6.029-15.193 11.444-17.74 30.172-10.524 91.893-5.09 115.542 2.418 9.95 4.967 17.252 8.207 21.401 3.243 4.149 6.13 4.828 10.491 2.66 8.745-4.868 14.498-23.963 17.133-49.591 1.468-13.206 2.228-33.352 3.121-66.508zM532.126 101.159c-3.025 1.179-4.362 3.43-4.286 6.759-.049 46.34-.011 72.144.103 77.137.051 2.219-1.577 3.92-3.793 3.971-2.219.051-3.924-1.574-3.974-3.793-.292-12.758-.42-30.514-.382-52.991-.149-43.005.873-58.846-1.989-99.015-.412-5.818-2.912-6.037-6.487-4.569l-.825.297c-4.662 2.325-8.156-4.809-3.494-7.136 14.275-6.708 31.782-5.722 45.549 1.732 15.43 7.416 24.359 21.642 21.436 39.468-1.693 10.86-7.869 19.881-18.534 26.784-1.637 1.148-3.281 2.017-4.928 2.888-3.012 1.734-3.24 3.958-.951 6.958 5.726 7.64 9.315 18.934 11.042 33.878.329 2.213.696 6.088 1.102 11.63.807 11.081 1.155 14.125 2.714 21.58.914 3.586 1.821 6.896 3.266 9.36.572.82 1.148 1.639 1.713 2.181l.572.819c1.382-.308 2.478-.888 3.563-2.023l.812-.85c3.233-4.236 9.449.615 6.215 4.852-6.201 7.911-14.496 9.211-20.013-1.484-3.184-5.755-5.069-15.423-5.755-21.234-.348-3.044-.722-7.198-1.134-13.016-.402-5.542-.762-9.14-1.085-11.075-1.465-15.505-4.757-25.974-12.12-32.465-2.27-2.168-4.489-2.117-7.514-.938l-.823.295zm34.057-39.627c2.183-13.647-4.725-24.588-17.083-30.964-5.899-3.195-11.763-4.726-17.877-5.142-3.888-.188-5.778 2.076-5.417 5.675.921 16.073 1.631 34.925 1.564 56.293.095 4.16 2.916 6.037 6.759 4.284 18.144-7.351 29.356-14.545 32.054-30.146zM609.769 29.185c-.266.264-.266.264-.266.531 0 .264-.529 1.326-.795 3.713 0 .531-.266 1.061-.266 1.858-1.061 8.222-.263 19.097.795 33.156.799 12.203 1.328 11.406.799 22.281-.266 5.306 1.59 5.837 5.303 5.837 3.184 0 6.101 0 8.224-.266 2.122-.264 3.979 1.327 4.245 3.448 0 2.122-1.594 3.979-3.713 3.979-2.655.266-5.573.266-9.285.266-3.45 0-5.306 0-5.572 5.305-1.324 25.995-1.59 46.686-.529 61.276.266 4.509.795 7.958 1.327 10.345 0 .531.263 1.061.263 1.326.266.266.532-1.592.532-2.387 0 2.653 1.061 4.509 3.979 5.04 5.835 1.061 13.527 0 21.222-.531 3.979-.264 6.896-.264 8.753-.264 2.122 0 3.713 1.59 3.713 3.713 0 2.122-1.59 3.714-3.713 3.714-3.45 0-14.591 1.059-18.038 1.326-8.753.264-15.12-.531-19.365-2.387-2.918-1.061-3.979-4.245-4.774-7.693-.795-2.918-1.327-6.632-1.59-11.67-1.061-16.181-.532-39.259.263-56.766.266-8.753.799-15.915 1.061-22.017.532-11.67.266-10.345-.795-23.342-1.061-14.059-1.856-25.729-.795-34.484.795-5.305 1.856-9.814 5.04-11.936 1.856-1.061 5.04-1.326 8.486-1.326 1.86 0 6.101 0 12.735.264 12.998.266 19.894.531 20.955.531 2.122-.264 3.979 1.326 4.241 3.448 0 1.061-.263 2.122-1.061 2.653-1.59 1.856-3.446 1.326-5.835 1.326-3.446 0-9.814 0-18.567-.264-6.63-.266-10.609-.266-12.203-.266-1.856 0-3.184 0-3.979.266h-.795v-.003z"/></g><g fill="currentColor"><path d="M41.199 375.207c1.939 17.738 1.109 10.823 2.217 19.542.831 6.012 3.048 18.337 6.374.3l1.939-10.222c6.096-35.773 8.313-51.401 9.978-66.132.274-3.007 1.109-6.613 3.6-8.118 2.217-.901 5.821.601 6.374 1.203.831.903.831 1.804 1.109 3.007.278.901.552 2.406.831 4.208.278 2.106 1.387 7.217 1.665 9.62 4.156 23.151 10.252 49.599 17.734 71.544 3.6 10.523 6.096 14.431 6.096 10.222 0-7.516 0-15.031-.278-22.547-1.939-47.2 5.217-90.49 15.469-129.872.831-2.406 2.77-3.608 4.987-3.007s3.048 3.007 2.773 5.41c-10.256 38.481-17.412 80.87-15.469 126.867.274 9.32.552 17.137.552 23.45-.278 5.712-.278 10.222-.552 13.528-.278 2.104-.556 3.606-.834 5.111-.831 1.502-1.383 3.908-3.878 4.809-1.387.302-2.77 0-3.878-.901-.831-.903-1.109-1.502-1.939-3.007-1.109-2.104-3.326-7.215-4.435-10.521-8.313-21.946-15.517-46.592-19.951-69.44-2.495-12.627-4.709-9.62-6.652 0-1.661 8.417-3.322 22.24-5.539 36.07l-5.545 32.769c-.831 4.809-1.661 8.417-2.217 10.823-.278 1.502-.552 2.404-.83 3.307 0 .601 0 .901-.278 1.203-.274.3-.274.601-.274.901-.556.903-1.109 1.502-1.665 1.804-1.387.901-2.77.601-4.156-.302l-1.109-1.201-.552-1.203c-.278-.302-.278-.601-.556-1.504-.278-.901-.552-2.404-1.109-4.509-.831-3.606-1.661-9.019-3.048-15.932-2.492-12.929-7.539-40.391-11.696-79.171l-3.326-35.174c-.278-2.705-.834-6.613-1.665-12.026-1.661-10.823-1.048-21.54-.217-29.958 0-2.406 1.943-4.21 4.156-4.21 2.217.302 3.882 2.406 3.604 4.811-.278 7.514-1.448 17.031.217 27.554.83 5.109 1.387 9.318 1.661 12.625.278 3.908 1.665 15.634 3.604 35.174l6.708 43.095zM155.828 265.752c.797 19.242-2.47 48.367-4.064 87.113-.267 8.58-1.267 20.023-.466 34.326.797 17.942 1.327 29.644 1.327 34.844 0 2.081-.594 3.641-2.722 3.641s-4.722-1.561-4.722-3.641c0-5.98-.534-17.422-1.331-34.585-.797-15.861-.064-27.565.47-35.105 1.594-35.366 4.861-63.969 4.06-86.073-.263-2.081 1.331-3.901 3.459-4.162 2.128.001 3.989 1.561 3.989 3.642zM201.494 340.836c-.797.265 0 1.861 0 1.861 8.513 14.096 16.299 25.331 26.673 51.129 3.456 9.31 6.915 16.756 9.84 22.075 2.391 4.521-4.523 8.246-6.915 3.724-2.925-5.585-6.385-13.299-10.107-22.874-12.235-31.65-22.947-47.404-26.936-51.394-.267-.267-.534-.267-.797-.799-.267 1.863-1.064 5.32-1.064 8.246-.267 4.786-.267 9.308-.534 13.829 0 2.128-.267 8.384-.53 14.767-.801 13.032-.801 16.755-.801 26.861 0 5.053.267 9.842.534 13.831.267 2.126-1.331 3.989-3.459 3.989-2.124.265-3.989-1.331-3.989-3.457-.53-3.989-.797-8.778-.797-14.096 0-10.374 0-14.628.797-27.66.267-6.383.534-12.639.801-14.767 1.594-36.436-.936-70.086-3.064-96.681-.267-2.395-1.598-4.256-1.064-6.65l.53-1.329c.267-.799 1.064-1.596 2.128-1.863 21.011-5.053 37.235 2.532 46.545 15.299 9.306 11.968 10.509 30.586-1.459 45.479-7.182 9.308-15.957 15.957-25.797 20.212l-.535.268zm-2.926-7.182c1.861-.797 2.128-.797 3.459-1.596 15.957-7.979 24.861-23.137 25.659-35.904.267-6.649-1.331-12.233-4.786-16.755-5.584-8.511-16.224-15.299-29.257-14.235-3.192.267-4.787 2.66-4.787 5.851 1.331 15.692 3.861 36.31 3.594 57.853 0 3.989.801 5.585 2.128 5.585 2.129 0 3.99-.799 3.99-.799zM283.441 264.648c6.123.039 19.972-1.68 22.099-1.759 2.127-.078 3.778 1.441 3.855 3.544.039 1.05-.196 1.849-.963 2.666-.771.819-1.558 1.11-2.622 1.149-2.127.078-15.966 2.06-22.352 2.032-5.326-.069-9.58.088-12.493.459l-2.923.107c-1.812 1.382-2.788 3.786-2.788 3.786-.427 2.911-.803 5.137-.876 10.403-.192 9.22-.005 21.584.308 37.365l.116 6.153c.126 3.419 2.053 5.19 5.5 4.799 4.244-.418 9.027-.594 10.357-.643 2.113-.342 4.035 1.167 4.375 3.261.077 2.103-1.448 4.001-3.575 4.079-.787.293-3.18.381-7.167.527-1.593.059-3.18.379-4.507.428-2.923.107-4.443 2.269-4.327 5.422.27 7.361.56 12.247 1.165 21.436.682 11.293.904 17.339.952 18.652l.251 6.834c-.112 4.216.023 7.897.129 10.788.154 4.205.28 7.622.634 9.977.292.78.321 1.568.35 2.357l1.597-.059c1.33-.049 2.666.164 5.06.077l9.503 1.688c3.457-.127 7.443-.273 12.484-.721l7.973-.293c2.127-.078 3.778 1.441 3.855 3.542.077 2.103-1.458 3.739-3.585 3.817-.534.02-3.19.117-7.964.555-4.774.439-8.76.586-12.217.713-5.317.195-10.303-1.658-13.236-1.815l-2.39.088c-1.597.059-3.18.381-5.355-.856-.267.01-.543-.242-.816-.497-1.369-1.001-1.956-2.559-2.272-3.865-.305-1.04-.354-2.355-.412-3.933-.363-2.618-.489-6.034-.653-10.503-.106-2.891-.241-6.572-.129-10.788l-.251-6.834c-.01-.262-.299-5.147-1.145-20.909-1.689-31.524-2.712-62.386-2.334-81.089.064-5.528.439-7.754.847-11.191.671-3.446 1.342-6.892 3.421-8.286 2.078-1.392 5.259-1.771 9.236-2.181l13.285-.482zM332.586 260.726c-.269-.313-.252-.924-.509-1.543-1.72-7.696 5.038-11.479 10.153-6.134.269.313.804.94 1.065 1.559.804.942 1.599 2.188 3.202 4.374 2.12 3.425 4.223 7.461 6.574 12.423 5.183 12.688 9.555 20.037 14.348 26.904 3.728 5.306 3.115 7.429 7.192.51 9.611-16.242 15.717-31.246 22.598-39.308.278.008.278.008.287-.297 0 0 .009-.305.295-.603.283-.297.578-.9.874-1.504 1.178-2.414 3.756-5.399 7.297-3.156.821.328 1.36.956 1.886 1.887l.521 1.239c-.009.307-.026.918.222 1.842.252.924.208 2.453.434 4.295.665 5.829.568 9.192 1.014 32.449.385 15.61 1.522 30.297 1.413 43.75.304 37.936-.147 57.314 2.123 84.602.208 2.453-1.248 4.859-3.464 4.796-2.225.241-4.398-1.349-4.328-3.795-2.548-27.295-2.076-47.285-2.093-85.518-.289-18.972-1.435-33.352-1.425-43.446-.499-11.637-.585-18.368-.532-20.202l-.152-4.285c.052-1.834-2.898 2.501-6.075 6.998-4.338 6.3-8.558 15.408-14.092 24.732l-2.33 3.91c-3.204 5.413-9.998 8.603-14.981.489-7.73-10.925-11.841-17.657-18.355-32.218-.778-1.858-1.556-3.714-2.085-4.647-2.077-4.952-2.078 4.836-2.252 10.947.156 4.287.016 9.176-.132 14.372-.314 11.002-1.063 27.497-2.243 49.486-1.462 21.981-5.207 38.476-5.521 49.478l-.288 10.084c-.4 4.272-.496 7.633-.566 10.079-.148 5.195.177 13.157 1.12 18.995.217 2.147-.97 4.865-2.917 5.117-2.225.241-4.681-1.053-4.889-3.504-1.703-8.308-1.493-15.642-.827-29.387.47-6.717.583-10.69.609-11.606.314-11.002 4.063-27.497 5.521-49.478 1.184-21.989 1.929-38.484 2.243-49.486.393-13.753.154-24.771-.423-33.658.009-.305.009-.305-.261-.617l-.251-.925zM495.759 314.458c-.269 47.018-5.961 69.767-11.734 88-3.494 11.243-8.377 15.432-14.394 18.843-7.938 4.642-15.249 2.144-20.487-4.496-3.717-5.236-7.02-10.372-9.646-21.395-5.434-23.649-13.032-85.313 5.915-118.345 4.338-6.949 12.902-13.42 20.678-14.882 13.129-2.252 20.938 3.113 24.543 15.78 1.359 4.584 5.808 12.626 5.125 36.495zm-7.785-12.829c-.11-8.238-2.805-15.446-4.628-21.381-2.68-9.965-7.737-12.003-16.041-10.567-5.353.79-11.996 6.029-15.193 11.444-17.74 30.172-10.524 88.893-5.09 112.542 2.418 9.95 4.967 14.252 8.207 18.401 3.243 4.149 6.13 4.828 10.491 2.66 6.208-3.455 16.369-19.709 19.133-46.591 1.468-13.207 2.228-33.353 3.121-66.508zM533.126 337.709c-3.025 1.179-4.362 3.43-4.286 6.759-.049 46.34 2.989 72.144 3.103 77.137.051 2.219-1.577 3.92-3.793 3.971-2.219.051-3.924-1.574-3.974-3.793-.292-12.758-3.42-30.514-3.382-52.991-.149-43.005.873-58.846-1.989-99.015-.412-5.818-5.912-5.037-9.487-3.569l-.825.297c-4.662 2.325-8.156-4.809-3.494-7.136 14.275-6.708 34.782-6.722 48.549.732 15.43 7.416 27.359 21.642 24.436 39.468-1.693 10.86-10.869 19.881-21.534 26.784-1.637 1.148-3.281 2.017-4.928 2.888-3.012 1.734-3.24 3.958-.951 6.957 5.726 7.64 11.315 17.934 13.042 32.878.329 2.213.696 6.088 1.102 11.63.807 11.081 1.155 14.125 2.714 21.58.914 3.586-.179 7.896 1.266 10.36.572.82 1.148 1.639 1.713 2.181l.572.819c1.382-.308 2.478-.888 3.563-2.023l.812-.85c3.233-4.236 9.449.615 6.215 4.852-6.201 7.911-14.496 9.211-20.013-1.484-3.184-5.755-3.069-16.423-3.755-22.234-.348-3.044-.722-7.198-1.134-13.016-.402-5.542-.762-9.14-1.085-11.075-1.465-15.505-6.757-24.974-14.12-31.465-2.27-2.168-4.489-2.117-7.514-.938l-.823.296zm37.057-39.626c2.183-13.647-7.725-24.588-20.083-30.964-5.899-3.195-11.763-4.726-17.877-5.142-3.888-.188-5.778 2.076-5.417 5.675.921 16.073 1.631 34.925 1.564 56.293.095 4.16 2.916 6.037 6.759 4.284 18.144-7.352 32.356-14.546 35.054-30.146zM610.769 265.736c-.266.264-.266.264-.266.531 0 .264-.529 1.326-.795 3.713 0 .531-.266 1.061-.266 1.858-1.061 8.222-.263 19.097.795 33.156.799 12.203 1.328 9.406.799 20.281-.266 5.306 1.59 5.837 5.303 5.837 3.184 0 9.101 0 11.224-.266 2.122-.264 3.979 1.327 4.245 3.448 0 2.122-1.594 3.979-3.713 3.979-2.655.266-8.573.266-12.285.266-3.45 0-5.306 0-5.572 5.305-1.324 25.995-3.59 46.686-2.529 61.276.266 4.509.795 7.958 1.327 10.345 0 .531.263 1.061.263 1.326.266.266.532-1.592.532-2.387 0 2.653 1.061 4.509 3.979 5.04 5.835 1.061 15.527 0 23.222-.531 3.979-.264 6.896-.264 8.753-.264 2.122 0 3.713 1.59 3.713 3.713 0 2.122-1.59 3.714-3.713 3.714-3.45 0-14.591 2.059-18.038 2.326-8.753.264-17.12-1.531-21.365-3.387-2.918-1.061-3.979-4.245-4.774-7.693-.795-2.918-1.327-6.632-1.59-11.67-1.061-16.181 1.468-37.259 2.263-54.766.266-8.753.799-17.915 1.061-24.017.532-11.67.266-8.345-.795-21.342-1.061-14.059-1.856-25.729-.795-34.484.795-5.305 1.856-9.814 5.04-11.936 1.856-1.061 5.04-1.326 8.486-1.326 1.86 0 6.101 0 12.735.264 12.998.266 19.894 2.531 20.955 2.531 2.122-.264 3.979 1.326 4.241 3.448 0 1.061-.263 2.122-1.061 2.653-1.59 1.856-3.446 1.326-5.835 1.326-3.446 0-9.814-2-18.567-2.264-6.63-.266-10.609-.266-12.203-.266-1.856 0-3.184 0-3.979.266h-.795v-.003z"/></g><g fill="currentColor"><path d="M39.199 610.207c1.939 17.738 3.109 10.823 4.217 19.542.29 2.098 3.76 14.473 6.374.3l1.939-10.222c6.096-35.773 8.313-51.401 9.978-66.132.274-3.007 1.109-6.613 3.6-8.118 2.217-.901 5.821.601 6.374 1.203.831.903.831 1.804 1.109 3.007.278.901.552 2.406.831 4.208.278 2.106 1.387 7.217 1.665 9.62 4.156 23.151 10.252 56.599 17.734 78.544 3.6 10.523 6.096 14.431 6.096 10.222 0-7.516 0-22.031-.278-29.547-1.939-47.2 5.217-90.49 15.469-129.872.831-2.406 2.77-3.608 4.987-3.007s3.048 3.007 2.773 5.41c-10.256 38.481-17.412 80.87-15.469 126.867.274 9.32.552 24.137.552 30.45-.278 5.712-.278 10.222-.552 13.528-.278 2.104-.556 3.606-.834 5.111-.831 1.502-1.383 3.908-3.878 4.809-1.387.302-2.77 0-3.878-.901-.831-.903-1.109-1.502-1.939-3.007-1.109-2.104-3.326-7.215-4.435-10.521-8.313-21.946-15.517-53.592-19.951-76.44-2.495-12.627-4.709-9.62-6.652 0-1.661 8.417-3.322 22.24-5.539 36.07l-5.545 28.769c-.831 4.809-1.661 8.417-2.217 10.823-.278 1.503-.552 2.404-.83 3.307 0 .601 0 .901-.278 1.203-.274.3-.274.601-.274.901-.556.903-1.109 1.502-1.665 1.804-1.387.901-2.77.601-4.156-.302l-1.109-1.201-.552-1.203c-.278-.302-.278-.601-.556-1.504-.278-.901-.552-2.404-1.109-4.509-.831-3.606-1.661-9.019-3.048-15.932-2.492-12.929-7.539-26.391-11.696-65.171l-1.326-44.174c-.278-2.705-.834-6.613-1.665-12.026-1.661-10.823-3.048-22.54-2.217-30.958 0-2.406 1.943-4.21 4.156-4.21 2.217.302 3.882 2.406 3.604 4.811-.278 7.514.552 18.031 2.217 28.554.83 5.109 1.387 9.319 1.661 12.625.278 3.908-.335 24.634 1.604 44.174l4.708 33.095zM153.828 500.752c.797 19.242 4.53 48.367 2.936 87.113-.267 8.581-1.267 20.023-.466 34.326.797 17.942 1.327 29.644 1.327 34.844 0 2.081-.594 3.641-2.722 3.641s-4.722-1.56-4.722-3.641c0-5.98-.534-17.422-1.331-34.585-.797-15.861-.064-27.565.47-35.105 1.594-35.366-2.139-63.969-2.94-86.073-.263-2.081 1.331-3.901 3.459-4.161 2.128 0 3.989 1.56 3.989 3.641zM201.494 575.836c-.797.265 0 1.861 0 1.861 8.513 14.096 21.299 28.331 31.673 54.129 3.456 9.31 6.915 16.756 9.84 22.075 2.391 4.521-4.523 8.246-6.915 3.724-2.925-5.585-6.385-13.299-10.107-22.874-12.235-31.65-27.947-50.404-31.936-54.394-.267-.267-.534-.267-.797-.799-.267 1.863-1.064 5.32-1.064 8.246-.267 4.786-.267 9.308-.534 13.829 0 2.128 3.733 10.384 3.47 16.767-.801 13.032-.801 16.755-.801 26.861 0 5.053.267 9.842.534 13.831.267 2.126-1.331 3.989-3.459 3.989-2.124.265-3.989-1.331-3.989-3.457-.53-3.989-.797-8.778-.797-14.096 0-10.374 0-14.628.797-27.66.267-6.383-3.466-14.639-3.199-16.767 1.594-36.436 2.064-70.086-.064-96.681-.267-2.395-1.598-4.256-1.064-6.65l.53-1.329c.267-.799 1.064-1.596 2.128-1.863 21.011-5.053 32.235 6.532 41.545 19.299 9.306 11.968 10.509 30.586-1.459 45.479-7.182 9.308-13.957 11.957-23.797 16.212l-.535.268zm-2.926-7.182c1.861-.797 2.128-.797 3.459-1.596 15.957-7.979 22.861-19.137 23.659-31.904.267-6.649-1.331-12.233-4.786-16.755-5.584-8.511-11.224-19.299-24.257-18.235-3.192.267-4.787 2.66-4.787 5.85 1.331 15.692.861 36.31.594 57.853 0 3.989.801 5.585 2.128 5.585 2.129.001 3.99-.798 3.99-.798zM283.441 499.648c6.123.039 19.972-1.68 22.099-1.759 2.127-.078 3.778 1.441 3.855 3.544.039 1.05-.196 1.849-.963 2.666-.771.819-1.558 1.11-2.622 1.149-2.127.078-15.966 2.06-22.352 2.032-5.326-.069-12.58.088-15.493.459l-2.923.107c-1.812 1.382-2.788 3.786-2.788 3.786-.427 2.911-.803 5.137-.876 10.403-.192 9.22-.005 21.584.308 37.365l.116 7.153c.126 3.419 2.053 5.19 5.5 4.799 4.244-.418 12.027-.594 13.357-.643 2.113-.342 4.035 1.167 4.375 3.261.077 2.103-1.448 4.001-3.575 4.079-.787.293-3.18.381-7.167.527-1.593.059-6.18.379-7.507.428-2.923.107-4.443 2.269-4.327 5.422.27 7.362.56 11.247 1.165 20.436.682 11.293.904 17.339.952 18.652l.251 6.834c-.112 4.216.023 7.897.129 10.788.154 4.205.28 4.622.634 6.977.292.78.321 1.568.35 2.357l1.597-.059c1.33-.049 5.666.164 8.06.077l9.503 1.688c3.457-.127 7.443-.273 12.484-.721l7.973-.293c2.127-.078 3.778 1.441 3.855 3.542.077 2.103-1.458 3.739-3.585 3.817-.534.02-3.19.117-7.964.555-4.774.44-8.76.586-12.217.713-5.317.195-13.303-1.658-16.236-1.815l-2.39.088c-1.597.059-3.18.381-5.355-.856-.267.01-.543-.242-.816-.497-1.369-1.001-1.956-2.559-2.272-3.865-.305-1.04-.354-2.355-.412-3.933-.363-2.617-.489-3.034-.653-7.503-.106-2.891-.241-6.572-.129-10.788l-.251-6.834c-.01-.262-.299-5.148-1.145-20.909-1.64-30.625-2.735-61.235-2.334-81.089.064-5.528.439-7.754.847-11.191.671-3.446 1.342-6.892 3.421-8.286 2.078-1.392 5.259-1.771 9.236-2.181l16.285-.482zM331.586 496.726c-.269-.313-.252-.924-.509-1.543-1.72-7.696 5.038-11.479 10.153-6.134.269.313.804.94 1.065 1.559.804.942 2.599 1.188 4.202 3.374 2.12 3.425 4.223 7.461 6.574 12.423 5.183 12.688 9.555 25.037 14.348 31.904 3.728 5.306 3.115 7.429 7.192.51 9.611-16.242 20.717-35.246 27.598-43.308.278.008.278.008.287-.297 0 0 .009-.305.295-.603.283-.297.578-.9.874-1.504 1.178-2.414 3.756-5.4 7.297-3.156.821.328 1.36.956 1.886 1.887l.521 1.239c-.009.307-.026.918.222 1.842.252.924.208 2.453.434 4.295.665 5.829.568 9.192 1.014 32.449.385 15.61 1.522 30.297 1.413 43.75.304 37.936-.147 57.314 2.123 84.602.208 2.453-1.248 4.859-3.464 4.796-2.225.241-4.398-1.349-4.328-3.795-2.548-27.295-2.076-47.285-2.093-85.518-.289-18.972-1.435-33.352-1.425-43.446-.499-11.637-.585-18.368-.532-20.202l-.152-4.285c.052-1.834-5.898 5.501-9.075 9.998-4.338 6.3-10.558 16.408-16.092 25.732l-2.33 3.91c-3.204 5.413-9.998 8.604-14.981.489-7.73-10.925-12.841-21.657-19.355-36.218-.778-1.858-1.556-3.714-2.085-4.647-2.077-4.952-2.078 4.836-2.252 10.947.156 4.287.016 9.176-.132 14.372-.314 11.002-.063 26.497-1.243 48.486-1.462 21.981-3.207 27.476-3.521 38.478l-.288 10.084c-.4 4.272-.496 7.633-.566 10.078-.148 5.195.177 13.157 1.12 18.995.217 2.147-.97 4.865-2.917 5.117-2.225.241-4.681-1.052-4.889-3.504-1.703-8.308-1.493-15.642-.827-29.387.47-6.717.583-10.69.609-11.606.314-11.002 2.063-16.497 3.521-38.478 1.184-21.989.929-37.484 1.243-48.486.393-13.753.154-24.771-.423-33.658.009-.305.009-.305-.261-.617l-.251-.924zM495.759 549.458c-.25 43.674-.96 65.087-12.734 82-6.726 9.663-7.377 13.432-13.394 16.843-7.938 4.642-15.249 2.144-20.487-4.496-3.717-5.236-7.02-2.372-9.646-13.395-5.434-23.649-17.032-83.313 1.915-116.345 4.338-6.949 12.902-13.42 20.678-14.882 13.129-2.252 24.938 1.113 28.543 13.78 1.359 4.584 5.808 12.626 5.125 36.495zm-6.785-12.829c-.11-8.238-3.805-15.446-5.628-21.381-2.68-9.965-11.737-10.003-20.041-8.567-5.353.79-11.996 6.029-15.193 11.444-17.74 30.172-6.524 86.893-1.09 110.542 2.418 9.95 4.967 6.252 8.207 10.401 3.243 4.149 6.13 4.828 10.491 2.66 8.745-4.868 17.498-12.963 20.133-38.591 1.468-13.207 2.228-33.353 3.121-66.508zM533.126 572.709c-3.025 1.179-4.362 3.43-4.286 6.759-.049 46.34-4.011 80.144-3.897 85.137.051 2.219-1.577 3.92-3.793 3.971-2.219.051-3.924-1.574-3.974-3.793-.292-12.758 3.58-38.514 3.618-60.991-.149-43.005.873-58.846-1.989-99.015-.412-5.818-5.912-3.037-9.487-1.569l-.825.297c-4.662 2.325-8.156-4.809-3.494-7.136 14.275-6.708 35.782-10.722 49.549-3.268 15.43 7.416 30.359 25.642 27.436 43.468-1.693 10.86-14.869 17.881-25.534 24.784-1.637 1.148-3.281 2.017-4.928 2.888-3.012 1.734-3.24 3.958-.951 6.958 5.726 7.64 11.315 17.934 13.042 32.878.329 2.213.696 6.088 1.102 11.63.807 11.081 1.155 14.125 2.714 21.581.914 3.586-.179 7.896 1.266 10.36.572.82 1.148 1.639 1.713 2.181l.572.819c1.382-.308 4.478 3.112 5.563 1.977l.812-.85c3.233-4.236 9.449.615 6.215 4.852-6.201 7.911-16.496 5.211-22.013-5.484-3.184-5.755-3.069-16.423-3.755-22.234-.348-3.044-.722-7.198-1.134-13.016-.402-5.542-.762-9.14-1.085-11.075-1.465-15.505-6.757-24.974-14.12-31.465-2.27-2.168-4.489-2.117-7.514-.938l-.823.294zm41.057-37.626c2.183-13.647-11.725-26.588-24.083-32.964-5.899-3.195-11.763-4.726-17.877-5.142-3.888-.188-5.778 2.076-5.417 5.675.921 16.073 1.631 34.925 1.564 56.293.095 4.16 2.916 6.037 6.759 4.284 16.656-6.749 37.844-21.149 39.054-28.146zM606.769 502.736c-.266.264-.266.264-.266.531 0 .264-.529-.674-.795 1.713 0 .531-.266 1.061-.266 1.858-1.061 8.222-.263 19.097.795 33.156.799 12.203 1.328 9.406.799 20.281-.266 5.306 5.59 5.837 9.303 5.837 3.184 0 9.101 0 11.224-.266 2.122-.264 3.979 1.327 4.245 3.448 0 2.122-1.594 3.979-3.713 3.979-2.655.266-12.573.266-16.285.266-3.45 0-5.306 0-5.572 5.305-1.324 25.995-3.59 36.686-2.529 51.276.266 4.509.795 7.958 1.327 10.345 0 .531.263 1.061.263 1.326.266.266.532-1.592.532-2.387 0 2.653 1.061 4.509 3.979 5.04 5.835 1.061 19.527 0 27.222-.531 3.979-.264 6.896-.264 8.753-.264 2.122 0 3.713 1.59 3.713 3.713 0 2.122-1.59 3.714-3.713 3.714-3.45 0-14.591 2.059-18.038 2.326-8.753.264-21.12-1.531-25.365-3.387-2.918-1.061-3.979-4.245-4.774-7.693-.795-2.918-1.327-6.632-1.59-11.67-1.061-16.181 1.468-27.259 2.263-44.766.266-8.753.799-17.915 1.061-24.017.532-11.67.266-8.345-.795-21.342-1.061-14.059-1.856-25.729-.795-34.484.795-5.305 1.856-7.814 5.04-9.936 1.856-1.061 5.04-1.326 8.486-1.326 1.86 0 10.101 0 16.735.264 12.998.266 19.894 2.531 20.955 2.531 2.122-.264 3.979 1.326 4.241 3.448 0 1.061-.263 2.122-1.061 2.653-1.59 1.856-3.446 1.326-5.835 1.326-3.446 0-9.814-2-18.567-2.264-6.63-.266-14.609-.266-16.203-.266-1.856 0-3.184 0-3.979.266h-.795v-.003z"/></g></svg>
