<?xml version="1.0" encoding="utf-8"?>
<!-- Generator: Adobe Illustrator 17.0.1, SVG Export Plug-In . SVG Version: 6.00 Build 0)  -->
<!DOCTYPE svg PUBLIC "-//W3C//DTD SVG 1.1//EN" "http://www.w3.org/Graphics/SVG/1.1/DTD/svg11.dtd">
<svg version="1.1" id="Layer_1" xmlns="http://www.w3.org/2000/svg" xmlns:xlink="http://www.w3.org/1999/xlink" x="0px" y="0px"
	 width="667px" height="708px" viewBox="0 0 667 708" enable-background="new 0 0 667 708" xml:space="preserve">
<rect x="0" y="472" display="none" fill="#C000FF" width="667" height="236"/>
<rect x="0" y="236" display="none" fill="#C000FF" width="667" height="236"/>
<rect x="0" display="none" fill="#C000FF" width="667" height="236"/>
<g>
	<path fill="#B5B0B0" d="M40.199,138.657c1.939,17.738,1.109,10.823,2.217,19.542c0.831,6.012,3.048,18.337,6.374,0.3l1.939-10.222
		c6.096-35.773,8.313-48.401,9.978-63.132c0.274-3.007,1.109-6.613,3.6-8.118c2.217-0.901,5.821,0.601,6.374,1.203
		c0.831,0.903,0.831,1.804,1.109,3.007c0.278,0.901,0.552,2.406,0.831,4.208c0.278,2.106,1.387,7.217,1.665,9.62
		c4.156,23.151,10.252,46.599,17.734,68.544c3.6,10.523,6.096,14.431,6.096,10.222c0-7.516,0-15.031-0.278-22.547
		c-1.939-47.2,2.217-90.49,12.469-129.872c0.831-2.406,2.77-3.608,4.987-3.007s3.048,3.007,2.773,5.41
		c-10.256,38.481-14.412,80.87-12.469,126.867c0.274,9.32,0.552,17.137,0.552,23.45c-0.278,5.712-0.278,10.222-0.552,13.528
		c-0.278,2.104-0.556,3.606-0.834,5.111c-0.831,1.502-1.383,3.908-3.878,4.809c-1.387,0.302-2.77,0-3.878-0.901
		c-0.831-0.903-1.109-1.502-1.939-3.007c-1.109-2.104-3.326-7.215-4.435-10.521c-8.313-21.946-15.517-43.592-19.951-66.44
		c-2.495-12.627-4.709-9.62-6.652,0c-1.661,8.417-3.322,19.24-5.539,33.07l-5.543,32.769c-0.831,4.809-1.661,8.417-2.217,10.823
		c-0.278,1.502-0.552,2.404-0.83,3.307c0,0.601,0,0.901-0.278,1.203c-0.274,0.3-0.274,0.601-0.274,0.901
		c-0.556,0.903-1.109,1.502-1.665,1.804c-1.387,0.901-2.77,0.601-4.156-0.302l-1.109-1.201c-0.278-0.302-0.278-0.903-0.552-1.203
		c-0.278-0.302-0.278-0.601-0.556-1.504c-0.278-0.901-0.552-2.404-1.109-4.509c-0.831-3.606-1.661-9.019-3.048-15.932
		c-2.492-12.929-5.539-42.391-9.696-81.171L24.13,59.591c-0.278-2.705-0.834-6.613-1.665-12.026
		c-1.661-10.823-3.048-19.54-2.217-27.958c0-2.406,1.943-4.21,4.156-4.21c2.217,0.302,3.882,2.406,3.604,4.811
		c-0.278,7.514,0.552,15.031,2.217,25.554c0.83,5.109,1.387,9.318,1.661,12.625c0.278,3.908,1.665,15.634,3.604,35.174
		L40.199,138.657z"/>
	<path fill="#B5B0B0" d="M151.828,29.202c0.797,19.242,0.53,48.367-1.064,87.113c-0.267,8.58-0.267,20.023,0.534,34.326
		c0.797,17.942,1.327,29.644,1.327,34.844c0,2.081-1.594,3.641-3.722,3.641s-3.722-1.561-3.722-3.641
		c0-5.98-0.534-17.422-1.331-34.585c-0.797-15.861-1.064-27.565-0.53-35.105c1.594-35.366,1.861-63.969,1.06-86.073
		c-0.263-2.081,1.331-3.901,3.459-4.162C149.967,25.56,151.828,27.121,151.828,29.202z"/>
	<path fill="#B5B0B0" d="M200.494,104.285c-0.797,0.265,0,1.861,0,1.861c8.513,14.096,13.299,26.331,23.673,52.129
		c3.456,9.31,6.915,16.756,9.84,22.075c2.391,4.521-4.523,8.246-6.915,3.724c-2.925-5.585-6.385-13.299-10.107-22.874
		c-12.235-31.65-19.947-48.404-23.936-52.394c-0.267-0.267-0.534-0.267-0.797-0.799c-0.267,1.863-1.064,5.32-1.064,8.246
		c-0.267,4.786-0.267,9.308-0.534,13.829c0,2.128-0.267,6.384-0.53,12.767c-0.801,13.032-0.801,16.755-0.801,26.861
		c0,5.053,0.267,9.842,0.534,13.831c0.267,2.126-1.331,3.989-3.459,3.989c-2.124,0.265-3.989-1.331-3.989-3.457
		c-0.53-3.989-0.797-8.778-0.797-14.096c0-10.374,0-14.628,0.797-27.66c0.267-6.383,0.534-10.639,0.801-12.767
		c1.594-36.436,1.064-68.086-1.064-94.681c-0.267-2.395-1.598-4.256-1.064-6.65c0.263-0.532,0.263-0.799,0.53-1.329
		c0.267-0.799,1.064-1.596,2.128-1.863c21.011-5.053,37.235,0.532,46.545,13.299c9.306,11.968,8.509,30.586-3.459,45.479
		c-7.182,9.308-15.957,15.957-25.797,20.212L200.494,104.285z M197.568,97.104c1.861-0.797,2.128-0.797,3.459-1.596
		c15.957-7.979,26.861-23.137,27.659-35.904c0.267-6.649-1.331-12.233-4.786-16.755c-5.584-8.511-16.224-13.299-29.257-12.235
		c-3.192,0.267-4.787,2.66-4.787,5.851c1.331,15.692,1.861,34.31,1.594,55.853c0,3.989,0.801,5.585,2.128,5.585
		C195.707,97.903,197.568,97.104,197.568,97.104z"/>
	<path fill="#B5B0B0" d="M282.441,26.098c6.123,0.039,19.972,0.32,22.099,0.241c2.127-0.078,3.778,1.441,3.855,3.544
		c0.039,1.05-0.196,1.849-0.963,2.666c-0.771,0.819-1.558,1.11-2.622,1.149c-2.127,0.078-15.966,0.06-22.352,0.032
		c-5.326-0.069-9.58,0.088-12.493,0.459c-1.063,0.039-2.127,0.078-2.923,0.107c-1.812,1.382-2.788,3.786-2.788,3.786
		c-0.427,2.911-0.803,7.137-0.876,12.403c-0.192,9.22-0.005,21.584,0.308,37.365l0.116,3.153c0.126,3.419,2.053,5.19,5.5,4.799
		c4.244-0.418,9.027-0.594,10.357-0.643c2.113-0.342,4.035,1.167,4.375,3.261c0.077,2.103-1.448,4.001-3.575,4.079
		c-0.787,0.293-3.18,0.381-7.167,0.527c-1.593,0.059-3.18,0.379-4.507,0.428c-2.923,0.107-4.443,2.269-4.327,5.422
		c0.27,7.361,0.56,15.247,1.165,24.436c0.682,11.293,0.904,17.339,0.952,18.652c0.01,0.264,0.097,2.629,0.251,6.834
		c-0.112,4.216,0.023,7.897,0.129,10.788c0.154,4.205,0.28,7.622,0.634,9.977c0.292,0.78,0.321,1.568,0.35,2.357
		c0.534-0.02,1.063-0.039,1.597-0.059c1.33-0.049,2.666,0.164,5.06,0.077l8.503-0.312c3.457-0.127,7.443-0.273,12.484-0.721
		c4.783-0.176,7.44-0.273,7.973-0.293c2.127-0.078,3.778,1.441,3.855,3.542c0.077,2.103-1.458,3.739-3.585,3.817
		c-0.534,0.02-3.19,0.117-7.964,0.555c-4.774,0.44-8.76,0.586-12.217,0.713c-5.317,0.195-9.303,0.342-12.236,0.185
		c-0.797,0.029-1.593,0.058-2.39,0.088c-1.597,0.059-3.18,0.381-5.355-0.856c-0.267,0.01-0.543-0.242-0.816-0.497
		c-1.369-1.001-1.956-2.559-2.272-3.865c-0.305-1.04-0.354-2.355-0.412-3.933c-0.363-2.618-0.489-6.034-0.653-10.503
		c-0.106-2.891-0.241-6.572-0.129-10.788c-0.154-4.205-0.241-6.57-0.251-6.834c-0.01-0.262-0.299-8.148-1.145-23.909
		c-1.689-31.524-2.712-59.386-2.334-78.089c0.064-5.528,0.439-9.754,0.847-13.191c0.671-3.446,1.342-6.892,3.421-8.286
		c2.078-1.392,5.259-1.771,9.236-2.181L282.441,26.098z"/>
	<path fill="#B5B0B0" d="M331.586,24.175c-0.269-0.313-0.252-0.924-0.509-1.543c-1.72-7.696,5.038-11.479,10.153-6.134
		c0.269,0.313,0.804,0.94,1.065,1.559c0.804,0.942,1.599,2.188,3.202,4.374c2.12,3.425,4.223,7.461,6.574,12.423
		c5.183,12.688,7.555,17.037,12.348,23.904c3.728,5.306,3.115,7.429,7.192,0.51c9.611-16.242,17.717-28.246,24.598-36.308
		c0.278,0.008,0.278,0.008,0.287-0.297c0,0,0.009-0.305,0.295-0.603c0.283-0.297,0.578-0.9,0.874-1.504
		c1.178-2.414,3.756-5.399,7.297-3.156c0.821,0.328,1.36,0.956,1.886,1.887l0.521,1.239c-0.009,0.307-0.026,0.918,0.222,1.842
		c0.252,0.924,0.208,2.453,0.434,4.295c0.665,5.829,0.568,9.192,1.014,32.449c0.385,15.61,0.522,30.297,0.413,43.75
		c0.304,37.936,0.853,67.314,3.123,94.602c0.208,2.453-1.248,4.859-3.464,4.796c-2.225,0.241-4.398-1.349-4.328-3.795
		c-2.548-27.295-3.076-57.285-3.093-95.518c-0.289-18.972-0.435-33.352-0.425-43.446c-0.499-11.637-0.585-18.368-0.532-20.202
		c0.044-1.527-0.196-2.758-0.152-4.285c0.052-1.834-3.898,0.501-7.075,4.998c-4.338,6.3-9.558,14.408-15.092,23.732l-2.33,3.91
		c-3.204,5.413-9.998,8.603-14.981,0.489c-7.73-10.925-9.841-14.657-16.355-29.218c-0.778-1.858-1.556-3.713-2.085-4.647
		c-2.077-4.952-2.078,4.836-2.252,10.947c0.156,4.287,0.016,9.176-0.132,14.372c-0.314,11.002-1.063,27.497-2.243,49.486
		c-1.462,21.981-2.207,38.476-2.521,49.478c-0.07,2.445-0.166,5.807-0.288,10.084c-0.4,4.272-0.496,7.633-0.566,10.079
		c-0.148,5.195,0.177,13.157,1.12,18.995c0.217,2.147-0.97,4.865-2.917,5.117c-2.225,0.241-4.681-1.053-4.889-3.504
		c-1.703-8.308-1.493-15.642-0.827-29.387c0.47-6.717,0.583-10.69,0.609-11.606c0.314-11.002,1.063-27.497,2.521-49.478
		c1.184-21.989,1.929-38.484,2.243-49.486c0.393-13.753,0.154-24.771-0.423-33.658c0.009-0.305,0.009-0.305-0.261-0.617
		L331.586,24.175z"/>
	<path fill="#B5B0B0" d="M491.759,77.907c-0.269,46.998-3.355,71.011-8.734,88c-3.494,11.243-8.377,18.432-14.394,21.843
		c-7.938,4.642-15.249,2.144-20.487-4.496c-3.717-5.236-7.02-13.372-9.646-24.395c-5.434-23.649-13.032-88.313,5.915-121.345
		c4.338-6.949,12.902-13.42,20.678-14.882c13.129-2.252,20.938,6.113,24.543,18.78C490.993,45.996,492.442,54.038,491.759,77.907z
		 M484.974,65.078c-0.11-8.238-0.805-15.446-2.628-21.381c-2.68-9.965-7.737-15.003-16.041-13.567
		c-5.353,0.79-11.996,6.029-15.193,11.444c-17.74,30.172-10.524,91.893-5.09,115.542c2.418,9.95,4.967,17.252,8.207,21.401
		c3.243,4.149,6.13,4.828,10.491,2.66c8.745-4.868,14.498-23.963,17.133-49.591C483.321,118.38,484.081,98.234,484.974,65.078z"/>
	<path fill="#B5B0B0" d="M532.126,101.159c-3.025,1.179-4.362,3.43-4.286,6.759c-0.049,46.34-0.011,72.144,0.103,77.137
		c0.051,2.219-1.577,3.92-3.793,3.971c-2.219,0.051-3.924-1.574-3.974-3.793c-0.292-12.758-0.42-30.514-0.382-52.991
		c-0.149-43.005,0.873-58.846-1.989-99.015c-0.412-5.818-2.912-6.037-6.487-4.569c-0.275,0.006-0.547,0.291-0.825,0.297
		c-4.662,2.325-8.156-4.809-3.494-7.136c14.275-6.708,31.782-5.722,45.549,1.732c15.43,7.416,24.359,21.642,21.436,39.468
		c-1.693,10.86-7.869,19.881-18.534,26.784c-1.637,1.148-3.281,2.017-4.928,2.888c-3.012,1.734-3.24,3.958-0.951,6.958
		c5.726,7.64,9.315,18.934,11.042,33.878c0.329,2.213,0.696,6.088,1.102,11.63c0.807,11.081,1.155,14.125,2.714,21.58
		c0.914,3.586,1.821,6.896,3.266,9.36c0.572,0.82,1.148,1.639,1.713,2.181c0.285,0.272,0.291,0.548,0.572,0.819
		c1.382-0.308,2.478-0.888,3.563-2.023c0.272-0.283,0.54-0.567,0.812-0.85c3.233-4.236,9.449,0.615,6.215,4.852
		c-6.201,7.911-14.496,9.211-20.013-1.484c-3.184-5.755-5.069-15.423-5.755-21.234c-0.348-3.044-0.722-7.198-1.134-13.016
		c-0.402-5.542-0.762-9.14-1.085-11.075c-1.465-15.505-4.757-25.974-12.12-32.465c-2.27-2.168-4.489-2.117-7.514-0.938
		L532.126,101.159z M566.183,61.532c2.183-13.647-4.725-24.588-17.083-30.964c-5.899-3.195-11.763-4.726-17.877-5.142
		c-3.888-0.188-5.778,2.076-5.417,5.675c0.921,16.073,1.631,34.925,1.564,56.293c0.095,4.16,2.916,6.037,6.759,4.284
		C552.273,84.327,563.485,77.133,566.183,61.532z"/>
	<path fill="#B5B0B0" d="M609.769,29.185c-0.266,0.264-0.266,0.264-0.266,0.531c0,0.264-0.529,1.326-0.795,3.713
		c0,0.531-0.266,1.061-0.266,1.858c-1.061,8.222-0.263,19.097,0.795,33.156c0.799,12.203,1.328,11.406,0.799,22.281
		c-0.266,5.306,1.59,5.837,5.303,5.837c3.184,0,6.101,0,8.224-0.266c2.122-0.264,3.979,1.327,4.245,3.448
		c0,2.122-1.594,3.979-3.713,3.979c-2.655,0.266-5.573,0.266-9.285,0.266c-3.45,0-5.306,0-5.572,5.305
		c-1.324,25.995-1.59,46.686-0.529,61.276c0.266,4.509,0.795,7.958,1.327,10.345c0,0.531,0.263,1.061,0.263,1.326
		c0.266,0.266,0.532-1.592,0.532-2.387c0,2.653,1.061,4.509,3.979,5.04c5.835,1.061,13.527,0,21.222-0.531
		c3.979-0.264,6.896-0.264,8.753-0.264c2.122,0,3.713,1.59,3.713,3.713c0,2.122-1.59,3.714-3.713,3.714
		c-3.45,0-14.591,1.059-18.038,1.326c-8.753,0.264-15.12-0.531-19.365-2.387c-2.918-1.061-3.979-4.245-4.774-7.693
		c-0.795-2.918-1.327-6.632-1.59-11.67c-1.061-16.181-0.532-39.259,0.263-56.766c0.266-8.753,0.799-15.915,1.061-22.017
		c0.532-11.67,0.266-10.345-0.795-23.342c-1.061-14.059-1.856-25.729-0.795-34.484c0.795-5.305,1.856-9.814,5.04-11.936
		c1.856-1.061,5.04-1.326,8.486-1.326c1.86,0,6.101,0,12.735,0.264c12.998,0.266,19.894,0.531,20.955,0.531
		c2.122-0.264,3.979,1.326,4.241,3.448c0,1.061-0.263,2.122-1.061,2.653c-1.59,1.856-3.446,1.326-5.835,1.326
		c-3.446,0-9.814,0-18.567-0.264c-6.63-0.266-10.609-0.266-12.203-0.266c-1.856,0-3.184,0-3.979,0.266h-0.795V29.185z"/>
</g>
<g>
	<path fill="#B5B0B0" d="M41.199,375.207c1.939,17.738,1.109,10.823,2.217,19.542c0.831,6.012,3.048,18.337,6.374,0.3l1.939-10.222
		c6.096-35.773,8.313-51.401,9.978-66.132c0.274-3.007,1.109-6.613,3.6-8.118c2.217-0.901,5.821,0.601,6.374,1.203
		c0.831,0.903,0.831,1.804,1.109,3.007c0.278,0.901,0.552,2.406,0.831,4.208c0.278,2.106,1.387,7.217,1.665,9.62
		c4.156,23.151,10.252,49.599,17.734,71.544c3.6,10.523,6.096,14.431,6.096,10.222c0-7.516,0-15.031-0.278-22.547
		c-1.939-47.2,5.217-90.49,15.469-129.872c0.831-2.406,2.77-3.608,4.987-3.007s3.048,3.007,2.773,5.41
		c-10.256,38.481-17.412,80.87-15.469,126.867c0.274,9.32,0.552,17.137,0.552,23.45c-0.278,5.712-0.278,10.222-0.552,13.528
		c-0.278,2.104-0.556,3.606-0.834,5.111c-0.831,1.502-1.383,3.908-3.878,4.809c-1.387,0.302-2.77,0-3.878-0.901
		c-0.831-0.903-1.109-1.502-1.939-3.007c-1.109-2.104-3.326-7.215-4.435-10.521c-8.313-21.946-15.517-46.592-19.951-69.44
		c-2.495-12.627-4.709-9.62-6.652,0c-1.661,8.417-3.322,22.24-5.539,36.07L53.947,419.1c-0.831,4.809-1.661,8.417-2.217,10.823
		c-0.278,1.502-0.552,2.404-0.83,3.307c0,0.601,0,0.901-0.278,1.203c-0.274,0.3-0.274,0.601-0.274,0.901
		c-0.556,0.903-1.109,1.502-1.665,1.804c-1.387,0.901-2.77,0.601-4.156-0.302l-1.109-1.201c-0.278-0.302-0.278-0.903-0.552-1.203
		c-0.278-0.302-0.278-0.601-0.556-1.504c-0.278-0.901-0.552-2.404-1.109-4.509c-0.831-3.606-1.661-9.019-3.048-15.932
		c-2.492-12.929-7.539-40.391-11.696-79.171l-3.326-35.174c-0.278-2.705-0.834-6.613-1.665-12.026
		c-1.661-10.823-1.048-21.54-0.217-29.958c0-2.406,1.943-4.21,4.156-4.21c2.217,0.302,3.882,2.406,3.604,4.811
		c-0.278,7.514-1.448,17.031,0.217,27.554c0.83,5.109,1.387,9.318,1.661,12.625c0.278,3.908,1.665,15.634,3.604,35.174
		L41.199,375.207z"/>
	<path fill="#B5B0B0" d="M155.828,265.752c0.797,19.242-2.47,48.367-4.064,87.113c-0.267,8.58-1.267,20.023-0.466,34.326
		c0.797,17.942,1.327,29.644,1.327,34.844c0,2.081-0.594,3.641-2.722,3.641s-4.722-1.561-4.722-3.641
		c0-5.98-0.534-17.422-1.331-34.585c-0.797-15.861-0.064-27.565,0.47-35.105c1.594-35.366,4.861-63.969,4.06-86.073
		c-0.263-2.081,1.331-3.901,3.459-4.162C153.967,262.111,155.828,263.671,155.828,265.752z"/>
	<path fill="#B5B0B0" d="M201.494,340.836c-0.797,0.265,0,1.861,0,1.861c8.513,14.096,16.299,25.331,26.673,51.129
		c3.456,9.31,6.915,16.756,9.84,22.075c2.391,4.521-4.523,8.246-6.915,3.724c-2.925-5.585-6.385-13.299-10.107-22.874
		c-12.235-31.65-22.947-47.404-26.936-51.394c-0.267-0.267-0.534-0.267-0.797-0.799c-0.267,1.863-1.064,5.32-1.064,8.246
		c-0.267,4.786-0.267,9.308-0.534,13.829c0,2.128-0.267,8.384-0.53,14.767c-0.801,13.032-0.801,16.755-0.801,26.861
		c0,5.053,0.267,9.842,0.534,13.831c0.267,2.126-1.331,3.989-3.459,3.989c-2.124,0.265-3.989-1.331-3.989-3.457
		c-0.53-3.989-0.797-8.778-0.797-14.096c0-10.374,0-14.628,0.797-27.66c0.267-6.383,0.534-12.639,0.801-14.767
		c1.594-36.436-0.936-70.086-3.064-96.681c-0.267-2.395-1.598-4.256-1.064-6.65c0.263-0.532,0.263-0.799,0.53-1.329
		c0.267-0.799,1.064-1.596,2.128-1.863c21.011-5.053,37.235,2.532,46.545,15.299c9.306,11.968,10.509,30.586-1.459,45.479
		c-7.182,9.308-15.957,15.957-25.797,20.212L201.494,340.836z M198.568,333.654c1.861-0.797,2.128-0.797,3.459-1.596
		c15.957-7.979,24.861-23.137,25.659-35.904c0.267-6.649-1.331-12.233-4.786-16.755c-5.584-8.511-16.224-15.299-29.257-14.235
		c-3.192,0.267-4.787,2.66-4.787,5.851c1.331,15.692,3.861,36.31,3.594,57.853c0,3.989,0.801,5.585,2.128,5.585
		C196.707,334.453,198.568,333.654,198.568,333.654z"/>
	<path fill="#B5B0B0" d="M283.441,264.648c6.123,0.039,19.972-1.68,22.099-1.759c2.127-0.078,3.778,1.441,3.855,3.544
		c0.039,1.05-0.196,1.849-0.963,2.666c-0.771,0.819-1.558,1.11-2.622,1.149c-2.127,0.078-15.966,2.06-22.352,2.032
		c-5.326-0.069-9.58,0.088-12.493,0.459c-1.063,0.039-2.127,0.078-2.923,0.107c-1.812,1.382-2.788,3.786-2.788,3.786
		c-0.427,2.911-0.803,5.137-0.876,10.403c-0.192,9.22-0.005,21.584,0.308,37.365l0.116,6.153c0.126,3.419,2.053,5.19,5.5,4.799
		c4.244-0.418,9.027-0.594,10.357-0.643c2.113-0.342,4.035,1.167,4.375,3.261c0.077,2.103-1.448,4.001-3.575,4.079
		c-0.787,0.293-3.18,0.381-7.167,0.527c-1.593,0.059-3.18,0.379-4.507,0.428c-2.923,0.107-4.443,2.269-4.327,5.422
		c0.27,7.361,0.56,12.247,1.165,21.436c0.682,11.293,0.904,17.339,0.952,18.652c0.01,0.264,0.097,2.629,0.251,6.834
		c-0.112,4.216,0.023,7.897,0.129,10.788c0.154,4.205,0.28,7.622,0.634,9.977c0.292,0.78,0.321,1.568,0.35,2.357
		c0.534-0.02,1.063-0.039,1.597-0.059c1.33-0.049,2.666,0.164,5.06,0.077l9.503,1.688c3.457-0.127,7.443-0.273,12.484-0.721
		c4.783-0.176,7.44-0.273,7.973-0.293c2.127-0.078,3.778,1.441,3.855,3.542c0.077,2.103-1.458,3.739-3.585,3.817
		c-0.534,0.02-3.19,0.117-7.964,0.555c-4.774,0.439-8.76,0.586-12.217,0.713c-5.317,0.195-10.303-1.658-13.236-1.815
		c-0.797,0.029-1.593,0.058-2.39,0.088c-1.597,0.059-3.18,0.381-5.355-0.856c-0.267,0.01-0.543-0.242-0.816-0.497
		c-1.369-1.001-1.956-2.559-2.272-3.865c-0.305-1.04-0.354-2.355-0.412-3.933c-0.363-2.618-0.489-6.034-0.653-10.503
		c-0.106-2.891-0.241-6.572-0.129-10.788c-0.154-4.205-0.241-6.57-0.251-6.834c-0.01-0.262-0.299-5.147-1.145-20.909
		c-1.689-31.524-2.712-62.386-2.334-81.089c0.064-5.528,0.439-7.754,0.847-11.191c0.671-3.446,1.342-6.892,3.421-8.286
		c2.078-1.392,5.259-1.771,9.236-2.181L283.441,264.648z"/>
	<path fill="#B5B0B0" d="M332.586,260.726c-0.269-0.313-0.252-0.924-0.509-1.543c-1.72-7.696,5.038-11.479,10.153-6.134
		c0.269,0.313,0.804,0.94,1.065,1.559c0.804,0.942,1.599,2.188,3.202,4.374c2.12,3.425,4.223,7.461,6.574,12.423
		c5.183,12.688,9.555,20.037,14.348,26.904c3.728,5.306,3.115,7.429,7.192,0.51c9.611-16.242,15.717-31.246,22.598-39.308
		c0.278,0.008,0.278,0.008,0.287-0.297c0,0,0.009-0.305,0.295-0.603c0.283-0.297,0.578-0.9,0.874-1.504
		c1.178-2.414,3.756-5.399,7.297-3.156c0.821,0.328,1.36,0.956,1.886,1.887l0.521,1.239c-0.009,0.307-0.026,0.918,0.222,1.842
		c0.252,0.924,0.208,2.453,0.434,4.295c0.665,5.829,0.568,9.192,1.014,32.449c0.385,15.61,1.522,30.297,1.413,43.75
		c0.304,37.936-0.147,57.314,2.123,84.602c0.208,2.453-1.248,4.859-3.464,4.796c-2.225,0.241-4.398-1.349-4.328-3.795
		c-2.548-27.295-2.076-47.285-2.093-85.518c-0.289-18.972-1.435-33.352-1.425-43.446c-0.499-11.637-0.585-18.368-0.532-20.202
		c0.044-1.527-0.196-2.758-0.152-4.285c0.052-1.834-2.898,2.501-6.075,6.998c-4.338,6.3-8.558,15.408-14.092,24.732l-2.33,3.91
		c-3.204,5.413-9.998,8.603-14.981,0.489c-7.73-10.925-11.841-17.657-18.355-32.218c-0.778-1.858-1.556-3.714-2.085-4.647
		c-2.077-4.952-2.078,4.836-2.252,10.947c0.156,4.287,0.016,9.176-0.132,14.372c-0.314,11.002-1.063,27.497-2.243,49.486
		c-1.462,21.981-5.207,38.476-5.521,49.478c-0.07,2.445-0.166,5.807-0.288,10.084c-0.4,4.272-0.496,7.633-0.566,10.079
		c-0.148,5.195,0.177,13.157,1.12,18.995c0.217,2.147-0.97,4.865-2.917,5.117c-2.225,0.241-4.681-1.053-4.889-3.504
		c-1.703-8.308-1.493-15.642-0.827-29.387c0.47-6.717,0.583-10.69,0.609-11.606c0.314-11.002,4.063-27.497,5.521-49.478
		c1.184-21.989,1.929-38.484,2.243-49.486c0.393-13.753,0.154-24.771-0.423-33.658c0.009-0.305,0.009-0.305-0.261-0.617
		L332.586,260.726z"/>
	<path fill="#B5B0B0" d="M495.759,314.458c-0.269,47.018-5.961,69.767-11.734,88c-3.494,11.243-8.377,15.432-14.394,18.843
		c-7.938,4.642-15.249,2.144-20.487-4.496c-3.717-5.236-7.02-10.372-9.646-21.395c-5.434-23.649-13.032-85.313,5.915-118.345
		c4.338-6.949,12.902-13.42,20.678-14.882c13.129-2.252,20.938,3.113,24.543,15.78C491.993,282.547,496.442,290.589,495.759,314.458
		z M487.974,301.629c-0.11-8.238-2.805-15.446-4.628-21.381c-2.68-9.965-7.737-12.003-16.041-10.567
		c-5.353,0.79-11.996,6.029-15.193,11.444c-17.74,30.172-10.524,88.893-5.09,112.542c2.418,9.95,4.967,14.252,8.207,18.401
		c3.243,4.149,6.13,4.828,10.491,2.66c6.208-3.455,16.369-19.709,19.133-46.591C486.321,354.93,487.081,334.784,487.974,301.629z"/>
	<path fill="#B5B0B0" d="M533.126,337.709c-3.025,1.179-4.362,3.43-4.286,6.759c-0.049,46.34,2.989,72.144,3.103,77.137
		c0.051,2.219-1.577,3.92-3.793,3.971c-2.219,0.051-3.924-1.574-3.974-3.793c-0.292-12.758-3.42-30.514-3.382-52.991
		c-0.149-43.005,0.873-58.846-1.989-99.015c-0.412-5.818-5.912-5.037-9.487-3.569c-0.275,0.006-0.547,0.291-0.825,0.297
		c-4.662,2.325-8.156-4.809-3.494-7.136c14.275-6.708,34.782-6.722,48.549,0.732c15.43,7.416,27.359,21.642,24.436,39.468
		c-1.693,10.86-10.869,19.881-21.534,26.784c-1.637,1.148-3.281,2.017-4.928,2.888c-3.012,1.734-3.24,3.958-0.951,6.957
		c5.726,7.64,11.315,17.934,13.042,32.878c0.329,2.213,0.696,6.088,1.102,11.63c0.807,11.081,1.155,14.125,2.714,21.58
		c0.914,3.586-0.179,7.896,1.266,10.36c0.572,0.82,1.148,1.639,1.713,2.181c0.285,0.272,0.291,0.548,0.572,0.819
		c1.382-0.308,2.478-0.888,3.563-2.023c0.272-0.283,0.54-0.567,0.812-0.85c3.233-4.236,9.449,0.615,6.215,4.852
		c-6.201,7.911-14.496,9.211-20.013-1.484c-3.184-5.755-3.069-16.423-3.755-22.234c-0.348-3.044-0.722-7.198-1.134-13.016
		c-0.402-5.542-0.762-9.14-1.085-11.075c-1.465-15.505-6.757-24.974-14.12-31.465c-2.27-2.168-4.489-2.117-7.514-0.938
		L533.126,337.709z M570.183,298.083c2.183-13.647-7.725-24.588-20.083-30.964c-5.899-3.195-11.763-4.726-17.877-5.142
		c-3.888-0.188-5.778,2.076-5.417,5.675c0.921,16.073,1.631,34.925,1.564,56.293c0.095,4.16,2.916,6.037,6.759,4.284
		C553.273,320.877,567.485,313.683,570.183,298.083z"/>
	<path fill="#B5B0B0" d="M610.769,265.736c-0.266,0.264-0.266,0.264-0.266,0.531c0,0.264-0.529,1.326-0.795,3.713
		c0,0.531-0.266,1.061-0.266,1.858c-1.061,8.222-0.263,19.097,0.795,33.156c0.799,12.203,1.328,9.406,0.799,20.281
		c-0.266,5.306,1.59,5.837,5.303,5.837c3.184,0,9.101,0,11.224-0.266c2.122-0.264,3.979,1.327,4.245,3.448
		c0,2.122-1.594,3.979-3.713,3.979c-2.655,0.266-8.573,0.266-12.285,0.266c-3.45,0-5.306,0-5.572,5.305
		c-1.324,25.995-3.59,46.686-2.529,61.276c0.266,4.509,0.795,7.958,1.327,10.345c0,0.531,0.263,1.061,0.263,1.326
		c0.266,0.266,0.532-1.592,0.532-2.387c0,2.653,1.061,4.509,3.979,5.04c5.835,1.061,15.527,0,23.222-0.531
		c3.979-0.264,6.896-0.264,8.753-0.264c2.122,0,3.713,1.59,3.713,3.713c0,2.122-1.59,3.714-3.713,3.714
		c-3.45,0-14.591,2.059-18.038,2.326c-8.753,0.264-17.12-1.531-21.365-3.387c-2.918-1.061-3.979-4.245-4.774-7.693
		c-0.795-2.918-1.327-6.632-1.59-11.67c-1.061-16.181,1.468-37.259,2.263-54.766c0.266-8.753,0.799-17.915,1.061-24.017
		c0.532-11.67,0.266-8.345-0.795-21.342c-1.061-14.059-1.856-25.729-0.795-34.484c0.795-5.305,1.856-9.814,5.04-11.936
		c1.856-1.061,5.04-1.326,8.486-1.326c1.86,0,6.101,0,12.735,0.264c12.998,0.266,19.894,2.531,20.955,2.531
		c2.122-0.264,3.979,1.326,4.241,3.448c0,1.061-0.263,2.122-1.061,2.653c-1.59,1.856-3.446,1.326-5.835,1.326
		c-3.446,0-9.814-2-18.567-2.264c-6.63-0.266-10.609-0.266-12.203-0.266c-1.856,0-3.184,0-3.979,0.266h-0.795V265.736z"/>
</g>
<g>
	<path fill="#B5B0B0" d="M39.199,610.207c1.939,17.738,3.109,10.823,4.217,19.542c0.29,2.098,3.76,14.473,6.374,0.3l1.939-10.222
		c6.096-35.773,8.313-51.401,9.978-66.132c0.274-3.007,1.109-6.613,3.6-8.118c2.217-0.901,5.821,0.601,6.374,1.203
		c0.831,0.903,0.831,1.804,1.109,3.007c0.278,0.901,0.552,2.406,0.831,4.208c0.278,2.106,1.387,7.217,1.665,9.62
		c4.156,23.151,10.252,56.599,17.734,78.544c3.6,10.523,6.096,14.431,6.096,10.222c0-7.516,0-22.031-0.278-29.547
		c-1.939-47.2,5.217-90.49,15.469-129.872c0.831-2.406,2.77-3.608,4.987-3.007s3.048,3.007,2.773,5.41
		c-10.256,38.481-17.412,80.87-15.469,126.867c0.274,9.32,0.552,24.137,0.552,30.45c-0.278,5.712-0.278,10.222-0.552,13.528
		c-0.278,2.104-0.556,3.606-0.834,5.111c-0.831,1.502-1.383,3.908-3.878,4.809c-1.387,0.302-2.77,0-3.878-0.901
		c-0.831-0.903-1.109-1.502-1.939-3.007c-1.109-2.104-3.326-7.215-4.435-10.521c-8.313-21.946-15.517-53.592-19.951-76.44
		c-2.495-12.627-4.709-9.62-6.652,0c-1.661,8.417-3.322,22.24-5.539,36.07L53.947,650.1c-0.831,4.809-1.661,8.417-2.217,10.823
		c-0.278,1.503-0.552,2.404-0.83,3.307c0,0.601,0,0.901-0.278,1.203c-0.274,0.3-0.274,0.601-0.274,0.901
		c-0.556,0.903-1.109,1.502-1.665,1.804c-1.387,0.901-2.77,0.601-4.156-0.302l-1.109-1.201c-0.278-0.302-0.278-0.903-0.552-1.203
		c-0.278-0.302-0.278-0.601-0.556-1.504c-0.278-0.901-0.552-2.404-1.109-4.509c-0.831-3.606-1.661-9.019-3.048-15.932
		c-2.492-12.929-7.539-26.391-11.696-65.171l-1.326-44.174c-0.278-2.705-0.834-6.613-1.665-12.026
		c-1.661-10.823-3.048-22.54-2.217-30.958c0-2.406,1.943-4.21,4.156-4.21c2.217,0.302,3.882,2.406,3.604,4.811
		c-0.278,7.514,0.552,18.031,2.217,28.554c0.83,5.109,1.387,9.319,1.661,12.625c0.278,3.908-0.335,24.634,1.604,44.174
		L39.199,610.207z"/>
	<path fill="#B5B0B0" d="M153.828,500.752c0.797,19.242,4.53,48.367,2.936,87.113c-0.267,8.581-1.267,20.023-0.466,34.326
		c0.797,17.942,1.327,29.644,1.327,34.844c0,2.081-0.594,3.641-2.722,3.641s-4.722-1.56-4.722-3.641
		c0-5.98-0.534-17.422-1.331-34.585c-0.797-15.861-0.064-27.565,0.47-35.105c1.594-35.366-2.139-63.969-2.94-86.073
		c-0.263-2.081,1.331-3.901,3.459-4.161C151.967,497.111,153.828,498.671,153.828,500.752z"/>
	<path fill="#B5B0B0" d="M201.494,575.836c-0.797,0.265,0,1.861,0,1.861c8.513,14.096,21.299,28.331,31.673,54.129
		c3.456,9.31,6.915,16.756,9.84,22.075c2.391,4.521-4.523,8.246-6.915,3.724c-2.925-5.585-6.385-13.299-10.107-22.874
		c-12.235-31.65-27.947-50.404-31.936-54.394c-0.267-0.267-0.534-0.267-0.797-0.799c-0.267,1.863-1.064,5.32-1.064,8.246
		c-0.267,4.786-0.267,9.308-0.534,13.829c0,2.128,3.733,10.384,3.47,16.767c-0.801,13.032-0.801,16.755-0.801,26.861
		c0,5.053,0.267,9.842,0.534,13.831c0.267,2.126-1.331,3.989-3.459,3.989c-2.124,0.265-3.989-1.331-3.989-3.457
		c-0.53-3.989-0.797-8.778-0.797-14.096c0-10.374,0-14.628,0.797-27.66c0.267-6.383-3.466-14.639-3.199-16.767
		c1.594-36.436,2.064-70.086-0.064-96.681c-0.267-2.395-1.598-4.256-1.064-6.65c0.263-0.532,0.263-0.799,0.53-1.329
		c0.267-0.799,1.064-1.596,2.128-1.863c21.011-5.053,32.235,6.532,41.545,19.299c9.306,11.968,10.509,30.586-1.459,45.479
		c-7.182,9.308-13.957,11.957-23.797,16.212L201.494,575.836z M198.568,568.654c1.861-0.797,2.128-0.797,3.459-1.596
		c15.957-7.979,22.861-19.137,23.659-31.904c0.267-6.649-1.331-12.233-4.786-16.755c-5.584-8.511-11.224-19.299-24.257-18.235
		c-3.192,0.267-4.787,2.66-4.787,5.85c1.331,15.692,0.861,36.31,0.594,57.853c0,3.989,0.801,5.585,2.128,5.585
		C196.707,569.453,198.568,568.654,198.568,568.654z"/>
	<path fill="#B5B0B0" d="M283.441,499.648c6.123,0.039,19.972-1.68,22.099-1.759c2.127-0.078,3.778,1.441,3.855,3.544
		c0.039,1.05-0.196,1.849-0.963,2.666c-0.771,0.819-1.558,1.11-2.622,1.149c-2.127,0.078-15.966,2.06-22.352,2.032
		c-5.326-0.069-12.58,0.088-15.493,0.459c-1.063,0.039-2.127,0.078-2.923,0.107c-1.812,1.382-2.788,3.786-2.788,3.786
		c-0.427,2.911-0.803,5.137-0.876,10.403c-0.192,9.22-0.005,21.584,0.308,37.365l0.116,7.153c0.126,3.419,2.053,5.19,5.5,4.799
		c4.244-0.418,12.027-0.594,13.357-0.643c2.113-0.342,4.035,1.167,4.375,3.261c0.077,2.103-1.448,4.001-3.575,4.079
		c-0.787,0.293-3.18,0.381-7.167,0.527c-1.593,0.059-6.18,0.379-7.507,0.428c-2.923,0.107-4.443,2.269-4.327,5.422
		c0.27,7.362,0.56,11.247,1.165,20.436c0.682,11.293,0.904,17.339,0.952,18.652c0.01,0.264,0.097,2.629,0.251,6.834
		c-0.112,4.216,0.023,7.897,0.129,10.788c0.154,4.205,0.28,4.622,0.634,6.977c0.292,0.78,0.321,1.568,0.35,2.357
		c0.534-0.02,1.063-0.039,1.597-0.059c1.33-0.049,5.666,0.164,8.06,0.077l9.503,1.688c3.457-0.127,7.443-0.273,12.484-0.721
		c4.783-0.176,7.44-0.273,7.973-0.293c2.127-0.078,3.778,1.441,3.855,3.542c0.077,2.103-1.458,3.739-3.585,3.817
		c-0.534,0.02-3.19,0.117-7.964,0.555c-4.774,0.44-8.76,0.586-12.217,0.713c-5.317,0.195-13.303-1.658-16.236-1.815
		c-0.797,0.029-1.593,0.058-2.39,0.088c-1.597,0.059-3.18,0.381-5.355-0.856c-0.267,0.01-0.543-0.242-0.816-0.497
		c-1.369-1.001-1.956-2.559-2.272-3.865c-0.305-1.04-0.354-2.355-0.412-3.933c-0.363-2.617-0.489-3.034-0.653-7.503
		c-0.106-2.891-0.241-6.572-0.129-10.788c-0.154-4.205-0.241-6.57-0.251-6.834c-0.01-0.262-0.299-5.148-1.145-20.909
		c-1.64-30.625-2.735-61.235-2.334-81.089c0.064-5.528,0.439-7.754,0.847-11.191c0.671-3.446,1.342-6.892,3.421-8.286
		c2.078-1.392,5.259-1.771,9.236-2.181L283.441,499.648z"/>
	<path fill="#B5B0B0" d="M331.586,496.726c-0.269-0.313-0.252-0.924-0.509-1.543c-1.72-7.696,5.038-11.479,10.153-6.134
		c0.269,0.313,0.804,0.94,1.065,1.559c0.804,0.942,2.599,1.188,4.202,3.374c2.12,3.425,4.223,7.461,6.574,12.423
		c5.183,12.688,9.555,25.037,14.348,31.904c3.728,5.306,3.115,7.429,7.192,0.51c9.611-16.242,20.717-35.246,27.598-43.308
		c0.278,0.008,0.278,0.008,0.287-0.297c0,0,0.009-0.305,0.295-0.603c0.283-0.297,0.578-0.9,0.874-1.504
		c1.178-2.414,3.756-5.4,7.297-3.156c0.821,0.328,1.36,0.956,1.886,1.887l0.521,1.239c-0.009,0.307-0.026,0.918,0.222,1.842
		c0.252,0.924,0.208,2.453,0.434,4.295c0.665,5.829,0.568,9.192,1.014,32.449c0.385,15.61,1.522,30.297,1.413,43.75
		c0.304,37.936-0.147,57.314,2.123,84.602c0.208,2.453-1.248,4.859-3.464,4.796c-2.225,0.241-4.398-1.349-4.328-3.795
		c-2.548-27.295-2.076-47.285-2.093-85.518c-0.289-18.972-1.435-33.352-1.425-43.446c-0.499-11.637-0.585-18.368-0.532-20.202
		c0.044-1.527-0.196-2.758-0.152-4.285c0.052-1.834-5.898,5.501-9.075,9.998c-4.338,6.3-10.558,16.408-16.092,25.732l-2.33,3.91
		c-3.204,5.413-9.998,8.604-14.981,0.489c-7.73-10.925-12.841-21.657-19.355-36.218c-0.778-1.858-1.556-3.714-2.085-4.647
		c-2.077-4.952-2.078,4.836-2.252,10.947c0.156,4.287,0.016,9.176-0.132,14.372c-0.314,11.002-0.063,26.497-1.243,48.486
		c-1.462,21.981-3.207,27.476-3.521,38.478c-0.07,2.445-0.166,5.807-0.288,10.084c-0.4,4.272-0.496,7.633-0.566,10.078
		c-0.148,5.195,0.177,13.157,1.12,18.995c0.217,2.147-0.97,4.865-2.917,5.117c-2.225,0.241-4.681-1.052-4.889-3.504
		c-1.703-8.308-1.493-15.642-0.827-29.387c0.47-6.717,0.583-10.69,0.609-11.606c0.314-11.002,2.063-16.497,3.521-38.478
		c1.184-21.989,0.929-37.484,1.243-48.486c0.393-13.753,0.154-24.771-0.423-33.658c0.009-0.305,0.009-0.305-0.261-0.617
		L331.586,496.726z"/>
	<path fill="#B5B0B0" d="M495.759,549.458c-0.25,43.674-0.96,65.087-12.734,82c-6.726,9.663-7.377,13.432-13.394,16.843
		c-7.938,4.642-15.249,2.144-20.487-4.496c-3.717-5.236-7.02-2.372-9.646-13.395c-5.434-23.649-17.032-83.313,1.915-116.345
		c4.338-6.949,12.902-13.42,20.678-14.882c13.129-2.252,24.938,1.113,28.543,13.78C491.993,517.547,496.442,525.589,495.759,549.458
		z M488.974,536.629c-0.11-8.238-3.805-15.446-5.628-21.381c-2.68-9.965-11.737-10.003-20.041-8.567
		c-5.353,0.79-11.996,6.029-15.193,11.444c-17.74,30.172-6.524,86.893-1.09,110.542c2.418,9.95,4.967,6.252,8.207,10.401
		c3.243,4.149,6.13,4.828,10.491,2.66c8.745-4.868,17.498-12.963,20.133-38.591C487.321,589.93,488.081,569.784,488.974,536.629z"/>
	<path fill="#B5B0B0" d="M533.126,572.709c-3.025,1.179-4.362,3.43-4.286,6.759c-0.049,46.34-4.011,80.144-3.897,85.137
		c0.051,2.219-1.577,3.92-3.793,3.971c-2.219,0.051-3.924-1.574-3.974-3.793c-0.292-12.758,3.58-38.514,3.618-60.991
		c-0.149-43.005,0.873-58.846-1.989-99.015c-0.412-5.818-5.912-3.037-9.487-1.569c-0.275,0.006-0.547,0.291-0.825,0.297
		c-4.662,2.325-8.156-4.809-3.494-7.136c14.275-6.708,35.782-10.722,49.549-3.268c15.43,7.416,30.359,25.642,27.436,43.468
		c-1.693,10.86-14.869,17.881-25.534,24.784c-1.637,1.148-3.281,2.017-4.928,2.888c-3.012,1.734-3.24,3.958-0.951,6.958
		c5.726,7.64,11.315,17.934,13.042,32.878c0.329,2.213,0.696,6.088,1.102,11.63c0.807,11.081,1.155,14.125,2.714,21.581
		c0.914,3.586-0.179,7.896,1.266,10.36c0.572,0.82,1.148,1.639,1.713,2.181c0.285,0.272,0.291,0.548,0.572,0.819
		c1.382-0.308,4.478,3.112,5.563,1.977c0.272-0.283,0.54-0.568,0.812-0.85c3.233-4.236,9.449,0.615,6.215,4.852
		c-6.201,7.911-16.496,5.211-22.013-5.484c-3.184-5.755-3.069-16.423-3.755-22.234c-0.348-3.044-0.722-7.198-1.134-13.016
		c-0.402-5.542-0.762-9.14-1.085-11.075c-1.465-15.505-6.757-24.974-14.12-31.465c-2.27-2.168-4.489-2.117-7.514-0.938
		L533.126,572.709z M574.183,535.083c2.183-13.647-11.725-26.588-24.083-32.964c-5.899-3.195-11.763-4.726-17.877-5.142
		c-3.888-0.188-5.778,2.076-5.417,5.675c0.921,16.073,1.631,34.925,1.564,56.293c0.095,4.16,2.916,6.037,6.759,4.284
		C551.785,556.48,572.973,542.08,574.183,535.083z"/>
	<path fill="#B5B0B0" d="M606.769,502.736c-0.266,0.264-0.266,0.264-0.266,0.531c0,0.264-0.529-0.674-0.795,1.713
		c0,0.531-0.266,1.061-0.266,1.858c-1.061,8.222-0.263,19.097,0.795,33.156c0.799,12.203,1.328,9.406,0.799,20.281
		c-0.266,5.306,5.59,5.837,9.303,5.837c3.184,0,9.101,0,11.224-0.266c2.122-0.264,3.979,1.327,4.245,3.448
		c0,2.122-1.594,3.979-3.713,3.979c-2.655,0.266-12.573,0.266-16.285,0.266c-3.45,0-5.306,0-5.572,5.305
		c-1.324,25.995-3.59,36.686-2.529,51.276c0.266,4.509,0.795,7.958,1.327,10.345c0,0.531,0.263,1.061,0.263,1.326
		c0.266,0.266,0.532-1.592,0.532-2.387c0,2.653,1.061,4.509,3.979,5.04c5.835,1.061,19.527,0,27.222-0.531
		c3.979-0.264,6.896-0.264,8.753-0.264c2.122,0,3.713,1.59,3.713,3.713c0,2.122-1.59,3.714-3.713,3.714
		c-3.45,0-14.591,2.059-18.038,2.326c-8.753,0.264-21.12-1.531-25.365-3.387c-2.918-1.061-3.979-4.245-4.774-7.693
		c-0.795-2.918-1.327-6.632-1.59-11.67c-1.061-16.181,1.468-27.259,2.263-44.766c0.266-8.753,0.799-17.915,1.061-24.017
		c0.532-11.67,0.266-8.345-0.795-21.342c-1.061-14.059-1.856-25.729-0.795-34.484c0.795-5.305,1.856-7.814,5.04-9.936
		c1.856-1.061,5.04-1.326,8.486-1.326c1.86,0,10.101,0,16.735,0.264c12.998,0.266,19.894,2.531,20.955,2.531
		c2.122-0.264,3.979,1.326,4.241,3.448c0,1.061-0.263,2.122-1.061,2.653c-1.59,1.856-3.446,1.326-5.835,1.326
		c-3.446,0-9.814-2-18.567-2.264c-6.63-0.266-14.609-0.266-16.203-0.266c-1.856,0-3.184,0-3.979,0.266h-0.795V502.736z"/>
</g>
</svg>
